<?xml version="1.0" encoding="UTF-8" standalone="no"?>
<!DOCTYPE svg PUBLIC "-//W3C//DTD SVG 1.1//EN"
 "http://www.w3.org/Graphics/SVG/1.1/DTD/svg11.dtd">
<!-- Generated by graphviz version 2.26.3 (20100126.1600)
 -->
<!-- Title: g Pages: 1 -->
<svg width="131pt" height="244pt"
 viewBox="0.00 0.00 131.00 244.00" xmlns="http://www.w3.org/2000/svg" xmlns:xlink="http://www.w3.org/1999/xlink">
<g id="graph1" class="graph" transform="scale(1 1) rotate(0) translate(4 240)">
<title>g</title>
<polygon fill="white" stroke="white" points="-4,5 -4,-240 128,-240 128,5 -4,5"/>
<!-- N1 -->
<g id="node1" class="node"><title>N1</title>
<polygon fill="#ffffff" stroke="#ffffff" stroke-width="1.5" points="76.5,-189 111.5,-189 123.5,-201 123.5,-223 111.5,-235 76.5,-235 64.5,-223 64.5,-201 76.5,-189"/>
<path fill="#ffffff" stroke="#ffffff" stroke-width="1.5" d="M111.5,-189C117.5,-189 123.5,-195 123.5,-201"/>
<path fill="#ffffff" stroke="#ffffff" stroke-width="1.5" d="M123.5,-223C123.5,-229 117.5,-235 111.5,-235"/>
<path fill="#ffffff" stroke="#ffffff" stroke-width="1.5" d="M76.5,-235C70.5,-235 64.5,-229 64.5,-223"/>
<path fill="#ffffff" stroke="#ffffff" stroke-width="1.5" d="M64.5,-201C64.5,-195 70.5,-189 76.5,-189"/>
<polyline fill="none" stroke="#2e3436" stroke-width="1.5" points="76.5,-189 111.5,-189 "/>
<path fill="none" stroke="#2e3436" stroke-width="1.5" d="M111.5,-189C117.5,-189 123.5,-195 123.5,-201"/>
<polyline fill="none" stroke="#2e3436" stroke-width="1.5" points="123.5,-201 123.5,-223 "/>
<path fill="none" stroke="#2e3436" stroke-width="1.5" d="M123.5,-223C123.5,-229 117.5,-235 111.5,-235"/>
<polyline fill="none" stroke="#2e3436" stroke-width="1.5" points="111.5,-235 76.5,-235 "/>
<path fill="none" stroke="#2e3436" stroke-width="1.5" d="M76.5,-235C70.5,-235 64.5,-229 64.5,-223"/>
<polyline fill="none" stroke="#2e3436" stroke-width="1.5" points="64.5,-223 64.5,-201 "/>
<path fill="none" stroke="#2e3436" stroke-width="1.5" d="M64.5,-201C64.5,-195 70.5,-189 76.5,-189"/>
<text text-anchor="middle" x="94" y="-223.8" font-family="FreeSans" font-size="8.00" fill="#1c2021">Node[1]</text>
<polyline fill="none" stroke="#2e3436" stroke-width="1.5" points="64.5,-217 123.5,-217 "/>
<text text-anchor="start" x="72.5" y="-205.8" font-family="FreeSans" font-size="8.00" fill="#1c2021">name = 0</text>
<text text-anchor="start" x="72.5" y="-195.8" font-family="FreeSans" font-size="8.00" fill="#1c2021">value = 0</text>
</g>
<!-- N3 -->
<g id="node3" class="node"><title>N3</title>
<polygon fill="#ffffff" stroke="#ffffff" stroke-width="1.5" points="11.5,-95 46.5,-95 58.5,-107 58.5,-129 46.5,-141 11.5,-141 -0.5,-129 -0.5,-107 11.5,-95"/>
<path fill="#ffffff" stroke="#ffffff" stroke-width="1.5" d="M46.5,-95C52.5,-95 58.5,-101 58.5,-107"/>
<path fill="#ffffff" stroke="#ffffff" stroke-width="1.5" d="M58.5,-129C58.5,-135 52.5,-141 46.5,-141"/>
<path fill="#ffffff" stroke="#ffffff" stroke-width="1.5" d="M11.5,-141C5.5,-141 -0.5,-135 -0.5,-129"/>
<path fill="#ffffff" stroke="#ffffff" stroke-width="1.5" d="M-0.5,-107C-0.5,-101 5.5,-95 11.5,-95"/>
<polyline fill="none" stroke="#2e3436" stroke-width="1.5" points="11.5,-95 46.5,-95 "/>
<path fill="none" stroke="#2e3436" stroke-width="1.5" d="M46.5,-95C52.5,-95 58.5,-101 58.5,-107"/>
<polyline fill="none" stroke="#2e3436" stroke-width="1.5" points="58.5,-107 58.5,-129 "/>
<path fill="none" stroke="#2e3436" stroke-width="1.5" d="M58.5,-129C58.5,-135 52.5,-141 46.5,-141"/>
<polyline fill="none" stroke="#2e3436" stroke-width="1.5" points="46.5,-141 11.5,-141 "/>
<path fill="none" stroke="#2e3436" stroke-width="1.5" d="M11.5,-141C5.5,-141 -0.5,-135 -0.5,-129"/>
<polyline fill="none" stroke="#2e3436" stroke-width="1.5" points="-0.5,-129 -0.5,-107 "/>
<path fill="none" stroke="#2e3436" stroke-width="1.5" d="M-0.5,-107C-0.5,-101 5.5,-95 11.5,-95"/>
<text text-anchor="middle" x="29" y="-129.8" font-family="FreeSans" font-size="8.00" fill="#1c2021">Node[3]</text>
<polyline fill="none" stroke="#2e3436" stroke-width="1.5" points="-0.5,-123 58.5,-123 "/>
<text text-anchor="start" x="7.5" y="-111.8" font-family="FreeSans" font-size="8.00" fill="#1c2021">name = 1</text>
<text text-anchor="start" x="7.5" y="-101.8" font-family="FreeSans" font-size="8.00" fill="#1c2021">value = 1</text>
</g>
<!-- N1&#45;&gt;N3 -->
<g id="edge2" class="edge"><title>N1&#45;&gt;N3</title>
<path fill="none" stroke="#2e3436" stroke-width="2" d="M77.9326,-188.764C69.3387,-176.336 58.6646,-160.9 49.4809,-147.618"/>
<polygon fill="#2e3436" stroke="#2e3436" points="45.1079,-141.294 52.1495,-145.544 47.652,-144.094 49.7848,-147.179 49.3736,-147.463 48.9623,-147.748 46.8295,-144.663 46.5976,-149.383 45.1079,-141.294 45.1079,-141.294"/>
<text text-anchor="middle" x="73.5" y="-162.8" font-family="FreeSans" font-size="8.00" fill="#2e3436">LINK</text>
</g>
<!-- N2 -->
<g id="node4" class="node"><title>N2</title>
<polygon fill="#ffffff" stroke="#ffffff" stroke-width="1.5" points="66.5,-1 101.5,-1 113.5,-13 113.5,-35 101.5,-47 66.5,-47 54.5,-35 54.5,-13 66.5,-1"/>
<path fill="#ffffff" stroke="#ffffff" stroke-width="1.5" d="M101.5,-1C107.5,-1 113.5,-7 113.5,-13"/>
<path fill="#ffffff" stroke="#ffffff" stroke-width="1.5" d="M113.5,-35C113.5,-41 107.5,-47 101.5,-47"/>
<path fill="#ffffff" stroke="#ffffff" stroke-width="1.5" d="M66.5,-47C60.5,-47 54.5,-41 54.5,-35"/>
<path fill="#ffffff" stroke="#ffffff" stroke-width="1.5" d="M54.5,-13C54.5,-7 60.5,-1 66.5,-1"/>
<polyline fill="none" stroke="#2e3436" stroke-width="1.5" points="66.5,-1 101.5,-1 "/>
<path fill="none" stroke="#2e3436" stroke-width="1.5" d="M101.5,-1C107.5,-1 113.5,-7 113.5,-13"/>
<polyline fill="none" stroke="#2e3436" stroke-width="1.5" points="113.5,-13 113.5,-35 "/>
<path fill="none" stroke="#2e3436" stroke-width="1.5" d="M113.5,-35C113.5,-41 107.5,-47 101.5,-47"/>
<polyline fill="none" stroke="#2e3436" stroke-width="1.5" points="101.5,-47 66.5,-47 "/>
<path fill="none" stroke="#2e3436" stroke-width="1.5" d="M66.5,-47C60.5,-47 54.5,-41 54.5,-35"/>
<polyline fill="none" stroke="#2e3436" stroke-width="1.5" points="54.5,-35 54.5,-13 "/>
<path fill="none" stroke="#2e3436" stroke-width="1.5" d="M54.5,-13C54.5,-7 60.5,-1 66.5,-1"/>
<text text-anchor="middle" x="84" y="-35.8" font-family="FreeSans" font-size="8.00" fill="#1c2021">Node[2]</text>
<polyline fill="none" stroke="#2e3436" stroke-width="1.5" points="54.5,-29 113.5,-29 "/>
<text text-anchor="start" x="62.5" y="-17.8" font-family="FreeSans" font-size="8.00" fill="#1c2021">value = 2</text>
<text text-anchor="start" x="62.5" y="-7.8" font-family="FreeSans" font-size="8.00" fill="#1c2021">name = 2</text>
</g>
<!-- N3&#45;&gt;N2 -->
<g id="edge6" class="edge"><title>N3&#45;&gt;N2</title>
<path fill="none" stroke="#2e3436" stroke-width="2" d="M42.5955,-94.764C49.8011,-82.449 58.7351,-67.18 66.4578,-53.9812"/>
<polygon fill="#2e3436" stroke="#2e3436" points="70.3703,-47.2944 69.4956,-55.4722 68.908,-50.7836 67.0142,-54.0203 66.5826,-53.7678 66.1511,-53.5153 68.0449,-50.2786 63.6696,-52.0634 70.3703,-47.2944 70.3703,-47.2944"/>
<text text-anchor="middle" x="68.5" y="-68.8" font-family="FreeSans" font-size="8.00" fill="#2e3436">LINK</text>
</g>
<!-- N2&#45;&gt;N1 -->
<g id="edge4" class="edge"><title>N2&#45;&gt;N1</title>
<path fill="none" stroke="#2e3436" stroke-width="2" d="M85.2362,-47.241C87.0338,-81.0353 90.3719,-143.791 92.369,-181.338"/>
<polygon fill="#2e3436" stroke="#2e3436" points="92.7738,-188.948 89.0051,-181.637 92.0753,-185.229 91.876,-181.485 92.3753,-181.458 92.8746,-181.432 93.0739,-185.176 95.7456,-181.279 92.7738,-188.948 92.7738,-188.948"/>
<text text-anchor="middle" x="99.5" y="-115.8" font-family="FreeSans" font-size="8.00" fill="#2e3436">LINK</text>
</g>
</g>
</svg>
