<?xml version="1.0" encoding="UTF-8" standalone="no"?>
<!DOCTYPE svg PUBLIC "-//W3C//DTD SVG 1.1//EN"
 "http://www.w3.org/Graphics/SVG/1.1/DTD/svg11.dtd">
<!-- Generated by graphviz version 2.26.3 (20100126.1600)
 -->
<!-- Title: g Pages: 1 -->
<svg width="475pt" height="648pt"
 viewBox="0.00 0.00 474.66 648.00" xmlns="http://www.w3.org/2000/svg" xmlns:xlink="http://www.w3.org/1999/xlink">
<g id="graph1" class="graph" transform="scale(0.731377 0.731377) rotate(0) translate(4 882)">
<title>g</title>
<polygon fill="white" stroke="white" points="-4,5 -4,-882 646,-882 646,5 -4,5"/>
<!-- N1 -->
<g id="node1" class="node"><title>N1</title>
<polygon fill="#ffffff" stroke="#ffffff" stroke-width="1.5" points="319,-841 349,-841 361,-853 361,-865 349,-877 319,-877 307,-865 307,-853 319,-841"/>
<path fill="#ffffff" stroke="#ffffff" stroke-width="1.5" d="M349,-841C355,-841 361,-847 361,-853"/>
<path fill="#ffffff" stroke="#ffffff" stroke-width="1.5" d="M361,-865C361,-871 355,-877 349,-877"/>
<path fill="#ffffff" stroke="#ffffff" stroke-width="1.5" d="M319,-877C313,-877 307,-871 307,-865"/>
<path fill="#ffffff" stroke="#ffffff" stroke-width="1.5" d="M307,-853C307,-847 313,-841 319,-841"/>
<polyline fill="none" stroke="#2e3436" stroke-width="1.5" points="319,-841 349,-841 "/>
<path fill="none" stroke="#2e3436" stroke-width="1.5" d="M349,-841C355,-841 361,-847 361,-853"/>
<polyline fill="none" stroke="#2e3436" stroke-width="1.5" points="361,-853 361,-865 "/>
<path fill="none" stroke="#2e3436" stroke-width="1.5" d="M361,-865C361,-871 355,-877 349,-877"/>
<polyline fill="none" stroke="#2e3436" stroke-width="1.5" points="349,-877 319,-877 "/>
<path fill="none" stroke="#2e3436" stroke-width="1.5" d="M319,-877C313,-877 307,-871 307,-865"/>
<polyline fill="none" stroke="#2e3436" stroke-width="1.5" points="307,-865 307,-853 "/>
<path fill="none" stroke="#2e3436" stroke-width="1.5" d="M307,-853C307,-847 313,-841 319,-841"/>
<text text-anchor="middle" x="334" y="-865.8" font-family="FreeSans" font-size="8.00" fill="#1c2021">Node[1]</text>
<polyline fill="none" stroke="#2e3436" stroke-width="1.5" points="307,-859 361,-859 "/>
<text text-anchor="middle" x="334" y="-847.8" font-family="FreeSans" font-size="8.00" fill="#1c2021"> </text>
</g>
<!-- N2 -->
<g id="node3" class="node"><title>N2</title>
<polygon fill="#ffffff" stroke="#ffffff" stroke-width="1.5" points="12,-757 46,-757 58,-769 58,-781 46,-793 12,-793 0,-781 0,-769 12,-757"/>
<path fill="#ffffff" stroke="#ffffff" stroke-width="1.5" d="M46,-757C52,-757 58,-763 58,-769"/>
<path fill="#ffffff" stroke="#ffffff" stroke-width="1.5" d="M58,-781C58,-787 52,-793 46,-793"/>
<path fill="#ffffff" stroke="#ffffff" stroke-width="1.5" d="M12,-793C6,-793 0,-787 0,-781"/>
<path fill="#ffffff" stroke="#ffffff" stroke-width="1.5" d="M0,-769C0,-763 6,-757 12,-757"/>
<polyline fill="none" stroke="#2e3436" stroke-width="1.5" points="12,-757 46,-757 "/>
<path fill="none" stroke="#2e3436" stroke-width="1.5" d="M46,-757C52,-757 58,-763 58,-769"/>
<polyline fill="none" stroke="#2e3436" stroke-width="1.5" points="58,-769 58,-781 "/>
<path fill="none" stroke="#2e3436" stroke-width="1.5" d="M58,-781C58,-787 52,-793 46,-793"/>
<polyline fill="none" stroke="#2e3436" stroke-width="1.5" points="46,-793 12,-793 "/>
<path fill="none" stroke="#2e3436" stroke-width="1.5" d="M12,-793C6,-793 0,-787 0,-781"/>
<polyline fill="none" stroke="#2e3436" stroke-width="1.5" points="0,-781 0,-769 "/>
<path fill="none" stroke="#2e3436" stroke-width="1.5" d="M0,-769C0,-763 6,-757 12,-757"/>
<text text-anchor="middle" x="29" y="-781.8" font-family="FreeSans" font-size="8.00" fill="#1c2021">Node[2]</text>
<polyline fill="none" stroke="#2e3436" stroke-width="1.5" points="0,-775 58,-775 "/>
<text text-anchor="start" x="8" y="-763.8" font-family="FreeSans" font-size="8.00" fill="#1c2021">count = 1</text>
</g>
<!-- N1&#45;&gt;N2 -->
<g id="edge2" class="edge"><title>N1&#45;&gt;N2</title>
<path fill="none" stroke="#2e3436" stroke-width="2" d="M306.615,-856.68C251.02,-851.68 126.9,-838.952 88,-822 74.9536,-816.314 62.3517,-806.986 52.168,-798.133"/>
<polygon fill="#2e3436" stroke="#2e3436" points="46.4664,-793.006 54.3,-795.511 49.5892,-795.142 52.3777,-797.649 52.0434,-798.021 51.7091,-798.393 48.9206,-795.885 49.7868,-800.531 46.4664,-793.006 46.4664,-793.006"/>
<text text-anchor="middle" x="91" y="-814.8" font-family="FreeSans" font-size="8.00" fill="#2e3436">X</text>
</g>
<!-- N3 -->
<g id="node5" class="node"><title>N3</title>
<polygon fill="#ffffff" stroke="#ffffff" stroke-width="1.5" points="76,-673 110,-673 122,-685 122,-697 110,-709 76,-709 64,-697 64,-685 76,-673"/>
<path fill="#ffffff" stroke="#ffffff" stroke-width="1.5" d="M110,-673C116,-673 122,-679 122,-685"/>
<path fill="#ffffff" stroke="#ffffff" stroke-width="1.5" d="M122,-697C122,-703 116,-709 110,-709"/>
<path fill="#ffffff" stroke="#ffffff" stroke-width="1.5" d="M76,-709C70,-709 64,-703 64,-697"/>
<path fill="#ffffff" stroke="#ffffff" stroke-width="1.5" d="M64,-685C64,-679 70,-673 76,-673"/>
<polyline fill="none" stroke="#2e3436" stroke-width="1.5" points="76,-673 110,-673 "/>
<path fill="none" stroke="#2e3436" stroke-width="1.5" d="M110,-673C116,-673 122,-679 122,-685"/>
<polyline fill="none" stroke="#2e3436" stroke-width="1.5" points="122,-685 122,-697 "/>
<path fill="none" stroke="#2e3436" stroke-width="1.5" d="M122,-697C122,-703 116,-709 110,-709"/>
<polyline fill="none" stroke="#2e3436" stroke-width="1.5" points="110,-709 76,-709 "/>
<path fill="none" stroke="#2e3436" stroke-width="1.5" d="M76,-709C70,-709 64,-703 64,-697"/>
<polyline fill="none" stroke="#2e3436" stroke-width="1.5" points="64,-697 64,-685 "/>
<path fill="none" stroke="#2e3436" stroke-width="1.5" d="M64,-685C64,-679 70,-673 76,-673"/>
<text text-anchor="middle" x="93" y="-697.8" font-family="FreeSans" font-size="8.00" fill="#1c2021">Node[3]</text>
<polyline fill="none" stroke="#2e3436" stroke-width="1.5" points="64,-691 122,-691 "/>
<text text-anchor="start" x="72" y="-679.8" font-family="FreeSans" font-size="8.00" fill="#1c2021">count = 2</text>
</g>
<!-- N1&#45;&gt;N3 -->
<g id="edge4" class="edge"><title>N1&#45;&gt;N3</title>
<path fill="none" stroke="#2e3436" stroke-width="2" d="M306.777,-856.907C260.319,-852.824 168.372,-842.36 144,-822 112.363,-795.572 100.272,-746.991 95.707,-716.994"/>
<polygon fill="#2e3436" stroke="#2e3436" points="94.6549,-709.426 99.0306,-716.39 95.6666,-713.072 96.183,-716.786 95.6878,-716.855 95.1926,-716.924 94.6761,-713.209 92.345,-717.32 94.6549,-709.426 94.6549,-709.426"/>
<text text-anchor="middle" x="123" y="-772.8" font-family="FreeSans" font-size="8.00" fill="#2e3436">X</text>
</g>
<!-- N4 -->
<g id="node7" class="node"><title>N4</title>
<polygon fill="#ffffff" stroke="#ffffff" stroke-width="1.5" points="149,-589 183,-589 195,-601 195,-613 183,-625 149,-625 137,-613 137,-601 149,-589"/>
<path fill="#ffffff" stroke="#ffffff" stroke-width="1.5" d="M183,-589C189,-589 195,-595 195,-601"/>
<path fill="#ffffff" stroke="#ffffff" stroke-width="1.5" d="M195,-613C195,-619 189,-625 183,-625"/>
<path fill="#ffffff" stroke="#ffffff" stroke-width="1.5" d="M149,-625C143,-625 137,-619 137,-613"/>
<path fill="#ffffff" stroke="#ffffff" stroke-width="1.5" d="M137,-601C137,-595 143,-589 149,-589"/>
<polyline fill="none" stroke="#2e3436" stroke-width="1.5" points="149,-589 183,-589 "/>
<path fill="none" stroke="#2e3436" stroke-width="1.5" d="M183,-589C189,-589 195,-595 195,-601"/>
<polyline fill="none" stroke="#2e3436" stroke-width="1.5" points="195,-601 195,-613 "/>
<path fill="none" stroke="#2e3436" stroke-width="1.5" d="M195,-613C195,-619 189,-625 183,-625"/>
<polyline fill="none" stroke="#2e3436" stroke-width="1.5" points="183,-625 149,-625 "/>
<path fill="none" stroke="#2e3436" stroke-width="1.5" d="M149,-625C143,-625 137,-619 137,-613"/>
<polyline fill="none" stroke="#2e3436" stroke-width="1.5" points="137,-613 137,-601 "/>
<path fill="none" stroke="#2e3436" stroke-width="1.5" d="M137,-601C137,-595 143,-589 149,-589"/>
<text text-anchor="middle" x="166" y="-613.8" font-family="FreeSans" font-size="8.00" fill="#1c2021">Node[4]</text>
<polyline fill="none" stroke="#2e3436" stroke-width="1.5" points="137,-607 195,-607 "/>
<text text-anchor="start" x="145" y="-595.8" font-family="FreeSans" font-size="8.00" fill="#1c2021">count = 3</text>
</g>
<!-- N1&#45;&gt;N4 -->
<g id="edge6" class="edge"><title>N1&#45;&gt;N4</title>
<path fill="none" stroke="#2e3436" stroke-width="2" d="M306.892,-853.654C276.318,-847.088 229.254,-835.188 217,-822 167.834,-769.087 163.402,-677.708 164.497,-633.066"/>
<polygon fill="#2e3436" stroke="#2e3436" points="164.756,-625.295 167.879,-632.903 165.131,-629.059 165.006,-632.807 164.506,-632.79 164.006,-632.774 164.132,-629.026 161.133,-632.678 164.756,-625.295 164.756,-625.295"/>
<text text-anchor="middle" x="177" y="-730.8" font-family="FreeSans" font-size="8.00" fill="#2e3436">X</text>
</g>
<!-- N5 -->
<g id="node9" class="node"><title>N5</title>
<polygon fill="#ffffff" stroke="#ffffff" stroke-width="1.5" points="208,-505 242,-505 254,-517 254,-529 242,-541 208,-541 196,-529 196,-517 208,-505"/>
<path fill="#ffffff" stroke="#ffffff" stroke-width="1.5" d="M242,-505C248,-505 254,-511 254,-517"/>
<path fill="#ffffff" stroke="#ffffff" stroke-width="1.5" d="M254,-529C254,-535 248,-541 242,-541"/>
<path fill="#ffffff" stroke="#ffffff" stroke-width="1.5" d="M208,-541C202,-541 196,-535 196,-529"/>
<path fill="#ffffff" stroke="#ffffff" stroke-width="1.5" d="M196,-517C196,-511 202,-505 208,-505"/>
<polyline fill="none" stroke="#2e3436" stroke-width="1.5" points="208,-505 242,-505 "/>
<path fill="none" stroke="#2e3436" stroke-width="1.5" d="M242,-505C248,-505 254,-511 254,-517"/>
<polyline fill="none" stroke="#2e3436" stroke-width="1.5" points="254,-517 254,-529 "/>
<path fill="none" stroke="#2e3436" stroke-width="1.5" d="M254,-529C254,-535 248,-541 242,-541"/>
<polyline fill="none" stroke="#2e3436" stroke-width="1.5" points="242,-541 208,-541 "/>
<path fill="none" stroke="#2e3436" stroke-width="1.5" d="M208,-541C202,-541 196,-535 196,-529"/>
<polyline fill="none" stroke="#2e3436" stroke-width="1.5" points="196,-529 196,-517 "/>
<path fill="none" stroke="#2e3436" stroke-width="1.5" d="M196,-517C196,-511 202,-505 208,-505"/>
<text text-anchor="middle" x="225" y="-529.8" font-family="FreeSans" font-size="8.00" fill="#1c2021">Node[5]</text>
<polyline fill="none" stroke="#2e3436" stroke-width="1.5" points="196,-523 254,-523 "/>
<text text-anchor="start" x="204" y="-511.8" font-family="FreeSans" font-size="8.00" fill="#1c2021">count = 4</text>
</g>
<!-- N1&#45;&gt;N5 -->
<g id="edge8" class="edge"><title>N1&#45;&gt;N5</title>
<path fill="none" stroke="#2e3436" stroke-width="2" d="M306.777,-848.59C278.704,-835.869 239,-811.436 239,-775 239,-775 239,-775 239,-607 239,-587.307 235.21,-565.365 231.573,-548.847"/>
<polygon fill="#2e3436" stroke="#2e3436" points="229.818,-541.207 234.787,-547.761 231.145,-544.75 231.985,-548.405 231.498,-548.517 231.01,-548.629 230.171,-544.974 228.208,-549.272 229.818,-541.207 229.818,-541.207"/>
<text text-anchor="middle" x="242" y="-688.8" font-family="FreeSans" font-size="8.00" fill="#2e3436">X</text>
</g>
<!-- N6 -->
<g id="node11" class="node"><title>N6</title>
<polygon fill="#ffffff" stroke="#ffffff" stroke-width="1.5" points="281,-421 315,-421 327,-433 327,-445 315,-457 281,-457 269,-445 269,-433 281,-421"/>
<path fill="#ffffff" stroke="#ffffff" stroke-width="1.5" d="M315,-421C321,-421 327,-427 327,-433"/>
<path fill="#ffffff" stroke="#ffffff" stroke-width="1.5" d="M327,-445C327,-451 321,-457 315,-457"/>
<path fill="#ffffff" stroke="#ffffff" stroke-width="1.5" d="M281,-457C275,-457 269,-451 269,-445"/>
<path fill="#ffffff" stroke="#ffffff" stroke-width="1.5" d="M269,-433C269,-427 275,-421 281,-421"/>
<polyline fill="none" stroke="#2e3436" stroke-width="1.5" points="281,-421 315,-421 "/>
<path fill="none" stroke="#2e3436" stroke-width="1.5" d="M315,-421C321,-421 327,-427 327,-433"/>
<polyline fill="none" stroke="#2e3436" stroke-width="1.5" points="327,-433 327,-445 "/>
<path fill="none" stroke="#2e3436" stroke-width="1.5" d="M327,-445C327,-451 321,-457 315,-457"/>
<polyline fill="none" stroke="#2e3436" stroke-width="1.5" points="315,-457 281,-457 "/>
<path fill="none" stroke="#2e3436" stroke-width="1.5" d="M281,-457C275,-457 269,-451 269,-445"/>
<polyline fill="none" stroke="#2e3436" stroke-width="1.5" points="269,-445 269,-433 "/>
<path fill="none" stroke="#2e3436" stroke-width="1.5" d="M269,-433C269,-427 275,-421 281,-421"/>
<text text-anchor="middle" x="298" y="-445.8" font-family="FreeSans" font-size="8.00" fill="#1c2021">Node[6]</text>
<polyline fill="none" stroke="#2e3436" stroke-width="1.5" points="269,-439 327,-439 "/>
<text text-anchor="start" x="277" y="-427.8" font-family="FreeSans" font-size="8.00" fill="#1c2021">count = 5</text>
</g>
<!-- N1&#45;&gt;N6 -->
<g id="edge10" class="edge"><title>N1&#45;&gt;N6</title>
<path fill="none" stroke="#2e3436" stroke-width="2" d="M321.206,-840.937C310.859,-824.538 298,-799.275 298,-775 298,-775 298,-775 298,-523 298,-503.449 298,-481.339 298,-464.711"/>
<polygon fill="#2e3436" stroke="#2e3436" points="298,-457.024 301.375,-464.524 298.5,-460.774 298.5,-464.524 298,-464.524 297.5,-464.524 297.5,-460.774 294.625,-464.524 298,-457.024 298,-457.024"/>
<text text-anchor="middle" x="301" y="-646.8" font-family="FreeSans" font-size="8.00" fill="#2e3436">X</text>
</g>
<!-- N7 -->
<g id="node13" class="node"><title>N7</title>
<polygon fill="#ffffff" stroke="#ffffff" stroke-width="1.5" points="340,-337 374,-337 386,-349 386,-361 374,-373 340,-373 328,-361 328,-349 340,-337"/>
<path fill="#ffffff" stroke="#ffffff" stroke-width="1.5" d="M374,-337C380,-337 386,-343 386,-349"/>
<path fill="#ffffff" stroke="#ffffff" stroke-width="1.5" d="M386,-361C386,-367 380,-373 374,-373"/>
<path fill="#ffffff" stroke="#ffffff" stroke-width="1.5" d="M340,-373C334,-373 328,-367 328,-361"/>
<path fill="#ffffff" stroke="#ffffff" stroke-width="1.5" d="M328,-349C328,-343 334,-337 340,-337"/>
<polyline fill="none" stroke="#2e3436" stroke-width="1.5" points="340,-337 374,-337 "/>
<path fill="none" stroke="#2e3436" stroke-width="1.5" d="M374,-337C380,-337 386,-343 386,-349"/>
<polyline fill="none" stroke="#2e3436" stroke-width="1.5" points="386,-349 386,-361 "/>
<path fill="none" stroke="#2e3436" stroke-width="1.5" d="M386,-361C386,-367 380,-373 374,-373"/>
<polyline fill="none" stroke="#2e3436" stroke-width="1.5" points="374,-373 340,-373 "/>
<path fill="none" stroke="#2e3436" stroke-width="1.5" d="M340,-373C334,-373 328,-367 328,-361"/>
<polyline fill="none" stroke="#2e3436" stroke-width="1.5" points="328,-361 328,-349 "/>
<path fill="none" stroke="#2e3436" stroke-width="1.5" d="M328,-349C328,-343 334,-337 340,-337"/>
<text text-anchor="middle" x="357" y="-361.8" font-family="FreeSans" font-size="8.00" fill="#1c2021">Node[7]</text>
<polyline fill="none" stroke="#2e3436" stroke-width="1.5" points="328,-355 386,-355 "/>
<text text-anchor="start" x="336" y="-343.8" font-family="FreeSans" font-size="8.00" fill="#1c2021">count = 6</text>
</g>
<!-- N1&#45;&gt;N7 -->
<g id="edge12" class="edge"><title>N1&#45;&gt;N7</title>
<path fill="none" stroke="#2e3436" stroke-width="2" d="M347.149,-840.989C357.784,-824.623 371,-799.381 371,-775 371,-775 371,-775 371,-439 371,-419.307 367.21,-397.365 363.573,-380.847"/>
<polygon fill="#2e3436" stroke="#2e3436" points="361.818,-373.207 366.787,-379.761 363.145,-376.75 363.985,-380.405 363.498,-380.517 363.01,-380.629 362.171,-376.974 360.208,-381.272 361.818,-373.207 361.818,-373.207"/>
<text text-anchor="middle" x="374" y="-604.8" font-family="FreeSans" font-size="8.00" fill="#2e3436">X</text>
</g>
<!-- N8 -->
<g id="node15" class="node"><title>N8</title>
<polygon fill="#ffffff" stroke="#ffffff" stroke-width="1.5" points="413,-253 447,-253 459,-265 459,-277 447,-289 413,-289 401,-277 401,-265 413,-253"/>
<path fill="#ffffff" stroke="#ffffff" stroke-width="1.5" d="M447,-253C453,-253 459,-259 459,-265"/>
<path fill="#ffffff" stroke="#ffffff" stroke-width="1.5" d="M459,-277C459,-283 453,-289 447,-289"/>
<path fill="#ffffff" stroke="#ffffff" stroke-width="1.5" d="M413,-289C407,-289 401,-283 401,-277"/>
<path fill="#ffffff" stroke="#ffffff" stroke-width="1.5" d="M401,-265C401,-259 407,-253 413,-253"/>
<polyline fill="none" stroke="#2e3436" stroke-width="1.5" points="413,-253 447,-253 "/>
<path fill="none" stroke="#2e3436" stroke-width="1.5" d="M447,-253C453,-253 459,-259 459,-265"/>
<polyline fill="none" stroke="#2e3436" stroke-width="1.5" points="459,-265 459,-277 "/>
<path fill="none" stroke="#2e3436" stroke-width="1.5" d="M459,-277C459,-283 453,-289 447,-289"/>
<polyline fill="none" stroke="#2e3436" stroke-width="1.5" points="447,-289 413,-289 "/>
<path fill="none" stroke="#2e3436" stroke-width="1.5" d="M413,-289C407,-289 401,-283 401,-277"/>
<polyline fill="none" stroke="#2e3436" stroke-width="1.5" points="401,-277 401,-265 "/>
<path fill="none" stroke="#2e3436" stroke-width="1.5" d="M401,-265C401,-259 407,-253 413,-253"/>
<text text-anchor="middle" x="430" y="-277.8" font-family="FreeSans" font-size="8.00" fill="#1c2021">Node[8]</text>
<polyline fill="none" stroke="#2e3436" stroke-width="1.5" points="401,-271 459,-271 "/>
<text text-anchor="start" x="409" y="-259.8" font-family="FreeSans" font-size="8.00" fill="#1c2021">count = 7</text>
</g>
<!-- N1&#45;&gt;N8 -->
<g id="edge14" class="edge"><title>N1&#45;&gt;N8</title>
<path fill="none" stroke="#2e3436" stroke-width="2" d="M361.253,-848.785C389.635,-836.168 430,-811.763 430,-775 430,-775 430,-775 430,-355 430,-335.449 430,-313.339 430,-296.711"/>
<polygon fill="#2e3436" stroke="#2e3436" points="430,-289.024 433.375,-296.524 430.5,-292.774 430.5,-296.524 430,-296.524 429.5,-296.524 429.5,-292.774 426.625,-296.524 430,-289.024 430,-289.024"/>
<text text-anchor="middle" x="433" y="-562.8" font-family="FreeSans" font-size="8.00" fill="#2e3436">X</text>
</g>
<!-- N9 -->
<g id="node17" class="node"><title>N9</title>
<polygon fill="#ffffff" stroke="#ffffff" stroke-width="1.5" points="472,-169 506,-169 518,-181 518,-193 506,-205 472,-205 460,-193 460,-181 472,-169"/>
<path fill="#ffffff" stroke="#ffffff" stroke-width="1.5" d="M506,-169C512,-169 518,-175 518,-181"/>
<path fill="#ffffff" stroke="#ffffff" stroke-width="1.5" d="M518,-193C518,-199 512,-205 506,-205"/>
<path fill="#ffffff" stroke="#ffffff" stroke-width="1.5" d="M472,-205C466,-205 460,-199 460,-193"/>
<path fill="#ffffff" stroke="#ffffff" stroke-width="1.5" d="M460,-181C460,-175 466,-169 472,-169"/>
<polyline fill="none" stroke="#2e3436" stroke-width="1.5" points="472,-169 506,-169 "/>
<path fill="none" stroke="#2e3436" stroke-width="1.5" d="M506,-169C512,-169 518,-175 518,-181"/>
<polyline fill="none" stroke="#2e3436" stroke-width="1.5" points="518,-181 518,-193 "/>
<path fill="none" stroke="#2e3436" stroke-width="1.5" d="M518,-193C518,-199 512,-205 506,-205"/>
<polyline fill="none" stroke="#2e3436" stroke-width="1.5" points="506,-205 472,-205 "/>
<path fill="none" stroke="#2e3436" stroke-width="1.5" d="M472,-205C466,-205 460,-199 460,-193"/>
<polyline fill="none" stroke="#2e3436" stroke-width="1.5" points="460,-193 460,-181 "/>
<path fill="none" stroke="#2e3436" stroke-width="1.5" d="M460,-181C460,-175 466,-169 472,-169"/>
<text text-anchor="middle" x="489" y="-193.8" font-family="FreeSans" font-size="8.00" fill="#1c2021">Node[9]</text>
<polyline fill="none" stroke="#2e3436" stroke-width="1.5" points="460,-187 518,-187 "/>
<text text-anchor="start" x="468" y="-175.8" font-family="FreeSans" font-size="8.00" fill="#1c2021">count = 8</text>
</g>
<!-- N1&#45;&gt;N9 -->
<g id="edge16" class="edge"><title>N1&#45;&gt;N9</title>
<path fill="none" stroke="#2e3436" stroke-width="2" d="M361.153,-851.556C408.925,-837.649 503,-806.29 503,-775 503,-775 503,-775 503,-271 503,-251.307 499.21,-229.365 495.573,-212.847"/>
<polygon fill="#2e3436" stroke="#2e3436" points="493.818,-205.207 498.787,-211.761 495.145,-208.75 495.985,-212.405 495.498,-212.517 495.01,-212.629 494.171,-208.974 492.208,-213.272 493.818,-205.207 493.818,-205.207"/>
<text text-anchor="middle" x="506" y="-520.8" font-family="FreeSans" font-size="8.00" fill="#2e3436">X</text>
</g>
<!-- N10 -->
<g id="node19" class="node"><title>N10</title>
<polygon fill="#ffffff" stroke="#ffffff" stroke-width="1.5" points="526,-85 560,-85 572,-97 572,-109 560,-121 526,-121 514,-109 514,-97 526,-85"/>
<path fill="#ffffff" stroke="#ffffff" stroke-width="1.5" d="M560,-85C566,-85 572,-91 572,-97"/>
<path fill="#ffffff" stroke="#ffffff" stroke-width="1.5" d="M572,-109C572,-115 566,-121 560,-121"/>
<path fill="#ffffff" stroke="#ffffff" stroke-width="1.5" d="M526,-121C520,-121 514,-115 514,-109"/>
<path fill="#ffffff" stroke="#ffffff" stroke-width="1.5" d="M514,-97C514,-91 520,-85 526,-85"/>
<polyline fill="none" stroke="#2e3436" stroke-width="1.5" points="526,-85 560,-85 "/>
<path fill="none" stroke="#2e3436" stroke-width="1.5" d="M560,-85C566,-85 572,-91 572,-97"/>
<polyline fill="none" stroke="#2e3436" stroke-width="1.5" points="572,-97 572,-109 "/>
<path fill="none" stroke="#2e3436" stroke-width="1.5" d="M572,-109C572,-115 566,-121 560,-121"/>
<polyline fill="none" stroke="#2e3436" stroke-width="1.5" points="560,-121 526,-121 "/>
<path fill="none" stroke="#2e3436" stroke-width="1.5" d="M526,-121C520,-121 514,-115 514,-109"/>
<polyline fill="none" stroke="#2e3436" stroke-width="1.5" points="514,-109 514,-97 "/>
<path fill="none" stroke="#2e3436" stroke-width="1.5" d="M514,-97C514,-91 520,-85 526,-85"/>
<text text-anchor="middle" x="543" y="-109.8" font-family="FreeSans" font-size="8.00" fill="#1c2021">Node[10]</text>
<polyline fill="none" stroke="#2e3436" stroke-width="1.5" points="514,-103 572,-103 "/>
<text text-anchor="start" x="522" y="-91.8" font-family="FreeSans" font-size="8.00" fill="#1c2021">count = 9</text>
</g>
<!-- N1&#45;&gt;N10 -->
<g id="edge18" class="edge"><title>N1&#45;&gt;N10</title>
<path fill="none" stroke="#2e3436" stroke-width="2" d="M361.05,-854.905C421.445,-845 562,-817.395 562,-775 562,-775 562,-775 562,-187 562,-166.903 556.762,-144.752 551.787,-128.246"/>
<polygon fill="#2e3436" stroke="#2e3436" points="549.539,-121.086 555.005,-127.231 551.139,-124.514 552.262,-128.092 551.785,-128.242 551.308,-128.391 550.185,-124.814 548.565,-129.253 549.539,-121.086 549.539,-121.086"/>
<text text-anchor="middle" x="565" y="-478.8" font-family="FreeSans" font-size="8.00" fill="#2e3436">X</text>
</g>
<!-- N11 -->
<g id="node21" class="node"><title>N11</title>
<polygon fill="#ffffff" stroke="#ffffff" stroke-width="1.5" points="523.5,-1 562.5,-1 574.5,-13 574.5,-25 562.5,-37 523.5,-37 511.5,-25 511.5,-13 523.5,-1"/>
<path fill="#ffffff" stroke="#ffffff" stroke-width="1.5" d="M562.5,-1C568.5,-1 574.5,-7 574.5,-13"/>
<path fill="#ffffff" stroke="#ffffff" stroke-width="1.5" d="M574.5,-25C574.5,-31 568.5,-37 562.5,-37"/>
<path fill="#ffffff" stroke="#ffffff" stroke-width="1.5" d="M523.5,-37C517.5,-37 511.5,-31 511.5,-25"/>
<path fill="#ffffff" stroke="#ffffff" stroke-width="1.5" d="M511.5,-13C511.5,-7 517.5,-1 523.5,-1"/>
<polyline fill="none" stroke="#2e3436" stroke-width="1.5" points="523.5,-1 562.5,-1 "/>
<path fill="none" stroke="#2e3436" stroke-width="1.5" d="M562.5,-1C568.5,-1 574.5,-7 574.5,-13"/>
<polyline fill="none" stroke="#2e3436" stroke-width="1.5" points="574.5,-13 574.5,-25 "/>
<path fill="none" stroke="#2e3436" stroke-width="1.5" d="M574.5,-25C574.5,-31 568.5,-37 562.5,-37"/>
<polyline fill="none" stroke="#2e3436" stroke-width="1.5" points="562.5,-37 523.5,-37 "/>
<path fill="none" stroke="#2e3436" stroke-width="1.5" d="M523.5,-37C517.5,-37 511.5,-31 511.5,-25"/>
<polyline fill="none" stroke="#2e3436" stroke-width="1.5" points="511.5,-25 511.5,-13 "/>
<path fill="none" stroke="#2e3436" stroke-width="1.5" d="M511.5,-13C511.5,-7 517.5,-1 523.5,-1"/>
<text text-anchor="middle" x="543" y="-25.8" font-family="FreeSans" font-size="8.00" fill="#1c2021">Node[11]</text>
<polyline fill="none" stroke="#2e3436" stroke-width="1.5" points="511.5,-19 574.5,-19 "/>
<text text-anchor="start" x="519.5" y="-7.8" font-family="FreeSans" font-size="8.00" fill="#1c2021">count = 10</text>
</g>
<!-- N1&#45;&gt;N11 -->
<g id="edge20" class="edge"><title>N1&#45;&gt;N11</title>
<path fill="none" stroke="#2e3436" stroke-width="2" d="M361.243,-857.239C435.336,-851.709 635,-831.559 635,-775 635,-775 635,-775 635,-103 635,-72.2261 606.58,-49.7116 581.331,-35.782"/>
<polygon fill="#2e3436" stroke="#2e3436" points="574.661,-32.2535 582.869,-32.7772 578.21,-33.5651 581.525,-35.3186 581.291,-35.7605 581.057,-36.2025 577.742,-34.449 579.713,-38.7439 574.661,-32.2535 574.661,-32.2535"/>
<text text-anchor="middle" x="638" y="-436.8" font-family="FreeSans" font-size="8.00" fill="#2e3436">X</text>
</g>
<!-- N2&#45;&gt;N3 -->
<g id="edge22" class="edge"><title>N2&#45;&gt;N3</title>
<path fill="none" stroke="#2e3436" stroke-width="2" d="M42.887,-756.773C52.1124,-744.665 64.3325,-728.626 74.3957,-715.418"/>
<polygon fill="#2e3436" stroke="#2e3436" points="79.1401,-709.191 77.2793,-717.202 77.2651,-712.477 74.9924,-715.46 74.5947,-715.157 74.197,-714.854 76.4697,-711.871 71.9101,-713.112 79.1401,-709.191 79.1401,-709.191"/>
<text text-anchor="middle" x="66" y="-730.8" font-family="FreeSans" font-size="8.00" fill="#2e3436">X</text>
</g>
<!-- N3&#45;&gt;N4 -->
<g id="edge24" class="edge"><title>N3&#45;&gt;N4</title>
<path fill="none" stroke="#2e3436" stroke-width="2" d="M108.84,-672.773C119.458,-660.555 133.555,-644.334 145.092,-631.059"/>
<polygon fill="#2e3436" stroke="#2e3436" points="150.191,-625.191 147.819,-633.066 148.109,-628.35 145.649,-631.18 145.271,-630.852 144.894,-630.524 147.354,-627.694 142.724,-628.638 150.191,-625.191 150.191,-625.191"/>
<text text-anchor="middle" x="134" y="-646.8" font-family="FreeSans" font-size="8.00" fill="#2e3436">X</text>
</g>
<!-- N4&#45;&gt;N5 -->
<g id="edge26" class="edge"><title>N4&#45;&gt;N5</title>
<path fill="none" stroke="#2e3436" stroke-width="2" d="M178.802,-588.773C187.307,-576.665 198.572,-560.626 207.849,-547.418"/>
<polygon fill="#2e3436" stroke="#2e3436" points="212.223,-541.191 210.674,-549.268 210.477,-544.547 208.321,-547.616 207.912,-547.329 207.503,-547.041 209.658,-543.972 205.15,-545.389 212.223,-541.191 212.223,-541.191"/>
<text text-anchor="middle" x="200" y="-562.8" font-family="FreeSans" font-size="8.00" fill="#2e3436">X</text>
</g>
<!-- N5&#45;&gt;N6 -->
<g id="edge28" class="edge"><title>N5&#45;&gt;N6</title>
<path fill="none" stroke="#2e3436" stroke-width="2" d="M240.84,-504.773C251.458,-492.555 265.555,-476.334 277.092,-463.059"/>
<polygon fill="#2e3436" stroke="#2e3436" points="282.191,-457.191 279.819,-465.066 280.109,-460.35 277.649,-463.18 277.271,-462.852 276.894,-462.524 279.354,-459.694 274.724,-460.638 282.191,-457.191 282.191,-457.191"/>
<text text-anchor="middle" x="266" y="-478.8" font-family="FreeSans" font-size="8.00" fill="#2e3436">X</text>
</g>
<!-- N6&#45;&gt;N7 -->
<g id="edge30" class="edge"><title>N6&#45;&gt;N7</title>
<path fill="none" stroke="#2e3436" stroke-width="2" d="M310.802,-420.773C319.307,-408.665 330.572,-392.626 339.849,-379.418"/>
<polygon fill="#2e3436" stroke="#2e3436" points="344.223,-373.191 342.674,-381.268 342.477,-376.547 340.321,-379.616 339.912,-379.329 339.503,-379.041 341.658,-375.972 337.15,-377.389 344.223,-373.191 344.223,-373.191"/>
<text text-anchor="middle" x="332" y="-394.8" font-family="FreeSans" font-size="8.00" fill="#2e3436">X</text>
</g>
<!-- N7&#45;&gt;N8 -->
<g id="edge32" class="edge"><title>N7&#45;&gt;N8</title>
<path fill="none" stroke="#2e3436" stroke-width="2" d="M372.84,-336.773C383.458,-324.555 397.555,-308.334 409.092,-295.059"/>
<polygon fill="#2e3436" stroke="#2e3436" points="414.191,-289.191 411.819,-297.066 412.109,-292.35 409.649,-295.18 409.271,-294.852 408.894,-294.524 411.354,-291.694 406.724,-292.638 414.191,-289.191 414.191,-289.191"/>
<text text-anchor="middle" x="398" y="-310.8" font-family="FreeSans" font-size="8.00" fill="#2e3436">X</text>
</g>
<!-- N8&#45;&gt;N9 -->
<g id="edge34" class="edge"><title>N8&#45;&gt;N9</title>
<path fill="none" stroke="#2e3436" stroke-width="2" d="M442.802,-252.773C451.307,-240.665 462.572,-224.626 471.849,-211.418"/>
<polygon fill="#2e3436" stroke="#2e3436" points="476.223,-205.191 474.674,-213.268 474.477,-208.547 472.321,-211.616 471.912,-211.329 471.503,-211.041 473.658,-207.972 469.15,-209.389 476.223,-205.191 476.223,-205.191"/>
<text text-anchor="middle" x="464" y="-226.8" font-family="FreeSans" font-size="8.00" fill="#2e3436">X</text>
</g>
<!-- N9&#45;&gt;N10 -->
<g id="edge36" class="edge"><title>N9&#45;&gt;N10</title>
<path fill="none" stroke="#2e3436" stroke-width="2" d="M500.717,-168.773C508.43,-156.775 518.625,-140.917 527.071,-127.779"/>
<polygon fill="#2e3436" stroke="#2e3436" points="531.306,-121.191 530.089,-129.325 529.698,-124.616 527.671,-127.77 527.25,-127.5 526.829,-127.23 528.857,-124.075 524.411,-125.675 531.306,-121.191 531.306,-121.191"/>
<text text-anchor="middle" x="520" y="-142.8" font-family="FreeSans" font-size="8.00" fill="#2e3436">X</text>
</g>
<!-- N10&#45;&gt;N11 -->
<g id="edge38" class="edge"><title>N10&#45;&gt;N11</title>
<path fill="none" stroke="#2e3436" stroke-width="2" d="M543,-84.7733C543,-73.1053 543,-57.7874 543,-44.8699"/>
<polygon fill="#2e3436" stroke="#2e3436" points="543,-37.1912 546.375,-44.6911 543.5,-40.9412 543.5,-44.6912 543,-44.6912 542.5,-44.6912 542.5,-40.9412 539.625,-44.6912 543,-37.1912 543,-37.1912"/>
<text text-anchor="middle" x="546" y="-58.8" font-family="FreeSans" font-size="8.00" fill="#2e3436">X</text>
</g>
<!-- N11&#45;&gt;N2 -->
<g id="edge40" class="edge"><title>N11&#45;&gt;N2</title>
<path fill="none" stroke="#2e3436" stroke-width="2" d="M511.462,-20.7126C398.389,-27.2664 20,-52.938 20,-103 20,-691 20,-691 20,-691 20,-710.537 22.4366,-732.484 24.7742,-749.045"/>
<polygon fill="#2e3436" stroke="#2e3436" points="25.9027,-756.708 21.4709,-749.78 24.8616,-753.071 24.3152,-749.361 24.8099,-749.288 25.3046,-749.215 25.851,-752.925 28.1489,-748.796 25.9027,-756.708 25.9027,-756.708"/>
<text text-anchor="middle" x="23" y="-394.8" font-family="FreeSans" font-size="8.00" fill="#2e3436">X</text>
</g>
</g>
</svg>
