<?xml version="1.0" encoding="UTF-8" standalone="no"?>
<!DOCTYPE svg PUBLIC "-//W3C//DTD SVG 1.1//EN"
 "http://www.w3.org/Graphics/SVG/1.1/DTD/svg11.dtd">
<!-- Generated by graphviz version 2.26.3 (20100126.1600)
 -->
<!-- Title: g Pages: 1 -->
<svg width="504pt" height="311pt"
 viewBox="0.00 0.00 504.00 311.17" xmlns="http://www.w3.org/2000/svg" xmlns:xlink="http://www.w3.org/1999/xlink">
<g id="graph1" class="graph" transform="scale(0.387991 0.387991) rotate(0) translate(4 798)">
<title>g</title>
<polygon fill="white" stroke="white" points="-4,5 -4,-798 1296,-798 1296,5 -4,5"/>
<!-- N2 -->
<g id="node1" class="node"><title>N2</title>
<polygon fill="#ffffff" stroke="#ffffff" stroke-width="1.5" points="592,-757 626,-757 638,-769 638,-781 626,-793 592,-793 580,-781 580,-769 592,-757"/>
<path fill="#ffffff" stroke="#ffffff" stroke-width="1.5" d="M626,-757C632,-757 638,-763 638,-769"/>
<path fill="#ffffff" stroke="#ffffff" stroke-width="1.5" d="M638,-781C638,-787 632,-793 626,-793"/>
<path fill="#ffffff" stroke="#ffffff" stroke-width="1.5" d="M592,-793C586,-793 580,-787 580,-781"/>
<path fill="#ffffff" stroke="#ffffff" stroke-width="1.5" d="M580,-769C580,-763 586,-757 592,-757"/>
<polyline fill="none" stroke="#2e3436" stroke-width="1.5" points="592,-757 626,-757 "/>
<path fill="none" stroke="#2e3436" stroke-width="1.5" d="M626,-757C632,-757 638,-763 638,-769"/>
<polyline fill="none" stroke="#2e3436" stroke-width="1.5" points="638,-769 638,-781 "/>
<path fill="none" stroke="#2e3436" stroke-width="1.5" d="M638,-781C638,-787 632,-793 626,-793"/>
<polyline fill="none" stroke="#2e3436" stroke-width="1.5" points="626,-793 592,-793 "/>
<path fill="none" stroke="#2e3436" stroke-width="1.5" d="M592,-793C586,-793 580,-787 580,-781"/>
<polyline fill="none" stroke="#2e3436" stroke-width="1.5" points="580,-781 580,-769 "/>
<path fill="none" stroke="#2e3436" stroke-width="1.5" d="M580,-769C580,-763 586,-757 592,-757"/>
<text text-anchor="middle" x="609" y="-781.8" font-family="FreeSans" font-size="8.00" fill="#1c2021">Node[2]</text>
<polyline fill="none" stroke="#2e3436" stroke-width="1.5" points="580,-775 638,-775 "/>
<text text-anchor="start" x="588" y="-763.8" font-family="FreeSans" font-size="8.00" fill="#1c2021">count = 1</text>
</g>
<!-- N3 -->
<g id="node3" class="node"><title>N3</title>
<polygon fill="#ffffff" stroke="#ffffff" stroke-width="1.5" points="679,-673 713,-673 725,-685 725,-697 713,-709 679,-709 667,-697 667,-685 679,-673"/>
<path fill="#ffffff" stroke="#ffffff" stroke-width="1.5" d="M713,-673C719,-673 725,-679 725,-685"/>
<path fill="#ffffff" stroke="#ffffff" stroke-width="1.5" d="M725,-697C725,-703 719,-709 713,-709"/>
<path fill="#ffffff" stroke="#ffffff" stroke-width="1.5" d="M679,-709C673,-709 667,-703 667,-697"/>
<path fill="#ffffff" stroke="#ffffff" stroke-width="1.5" d="M667,-685C667,-679 673,-673 679,-673"/>
<polyline fill="none" stroke="#2e3436" stroke-width="1.5" points="679,-673 713,-673 "/>
<path fill="none" stroke="#2e3436" stroke-width="1.5" d="M713,-673C719,-673 725,-679 725,-685"/>
<polyline fill="none" stroke="#2e3436" stroke-width="1.5" points="725,-685 725,-697 "/>
<path fill="none" stroke="#2e3436" stroke-width="1.5" d="M725,-697C725,-703 719,-709 713,-709"/>
<polyline fill="none" stroke="#2e3436" stroke-width="1.5" points="713,-709 679,-709 "/>
<path fill="none" stroke="#2e3436" stroke-width="1.5" d="M679,-709C673,-709 667,-703 667,-697"/>
<polyline fill="none" stroke="#2e3436" stroke-width="1.5" points="667,-697 667,-685 "/>
<path fill="none" stroke="#2e3436" stroke-width="1.5" d="M667,-685C667,-679 673,-673 679,-673"/>
<text text-anchor="middle" x="696" y="-697.8" font-family="FreeSans" font-size="8.00" fill="#1c2021">Node[3]</text>
<polyline fill="none" stroke="#2e3436" stroke-width="1.5" points="667,-691 725,-691 "/>
<text text-anchor="start" x="675" y="-679.8" font-family="FreeSans" font-size="8.00" fill="#1c2021">count = 2</text>
</g>
<!-- N2&#45;&gt;N3 -->
<g id="edge2" class="edge"><title>N2&#45;&gt;N3</title>
<path fill="none" stroke="#2e3436" stroke-width="2" d="M627.878,-756.773C640.646,-744.445 657.635,-728.042 671.453,-714.701"/>
<polygon fill="#2e3436" stroke="#2e3436" points="677.159,-709.191 674.108,-716.829 674.809,-712.156 672.111,-714.76 671.764,-714.401 671.416,-714.041 674.114,-711.436 669.419,-711.973 677.159,-709.191 677.159,-709.191"/>
<text text-anchor="middle" x="658" y="-730.8" font-family="FreeSans" font-size="8.00" fill="#2e3436">X</text>
</g>
<!-- N4 -->
<g id="node5" class="node"><title>N4</title>
<polygon fill="#ffffff" stroke="#ffffff" stroke-width="1.5" points="592,-589 626,-589 638,-601 638,-613 626,-625 592,-625 580,-613 580,-601 592,-589"/>
<path fill="#ffffff" stroke="#ffffff" stroke-width="1.5" d="M626,-589C632,-589 638,-595 638,-601"/>
<path fill="#ffffff" stroke="#ffffff" stroke-width="1.5" d="M638,-613C638,-619 632,-625 626,-625"/>
<path fill="#ffffff" stroke="#ffffff" stroke-width="1.5" d="M592,-625C586,-625 580,-619 580,-613"/>
<path fill="#ffffff" stroke="#ffffff" stroke-width="1.5" d="M580,-601C580,-595 586,-589 592,-589"/>
<polyline fill="none" stroke="#2e3436" stroke-width="1.5" points="592,-589 626,-589 "/>
<path fill="none" stroke="#2e3436" stroke-width="1.5" d="M626,-589C632,-589 638,-595 638,-601"/>
<polyline fill="none" stroke="#2e3436" stroke-width="1.5" points="638,-601 638,-613 "/>
<path fill="none" stroke="#2e3436" stroke-width="1.5" d="M638,-613C638,-619 632,-625 626,-625"/>
<polyline fill="none" stroke="#2e3436" stroke-width="1.5" points="626,-625 592,-625 "/>
<path fill="none" stroke="#2e3436" stroke-width="1.5" d="M592,-625C586,-625 580,-619 580,-613"/>
<polyline fill="none" stroke="#2e3436" stroke-width="1.5" points="580,-613 580,-601 "/>
<path fill="none" stroke="#2e3436" stroke-width="1.5" d="M580,-601C580,-595 586,-589 592,-589"/>
<text text-anchor="middle" x="609" y="-613.8" font-family="FreeSans" font-size="8.00" fill="#1c2021">Node[4]</text>
<polyline fill="none" stroke="#2e3436" stroke-width="1.5" points="580,-607 638,-607 "/>
<text text-anchor="start" x="588" y="-595.8" font-family="FreeSans" font-size="8.00" fill="#1c2021">count = 3</text>
</g>
<!-- N2&#45;&gt;N4 -->
<g id="edge4" class="edge"><title>N2&#45;&gt;N4</title>
<path fill="none" stroke="#2e3436" stroke-width="2" d="M609,-756.701C609,-726.705 609,-666.99 609,-632.74"/>
<polygon fill="#2e3436" stroke="#2e3436" points="609,-625.022 612.375,-632.522 609.5,-628.772 609.5,-632.522 609,-632.522 608.5,-632.522 608.5,-628.772 605.625,-632.522 609,-625.022 609,-625.022"/>
<text text-anchor="middle" x="612" y="-688.8" font-family="FreeSans" font-size="8.00" fill="#2e3436">X</text>
</g>
<!-- N5 -->
<g id="node7" class="node"><title>N5</title>
<polygon fill="#ffffff" stroke="#ffffff" stroke-width="1.5" points="592,-505 626,-505 638,-517 638,-529 626,-541 592,-541 580,-529 580,-517 592,-505"/>
<path fill="#ffffff" stroke="#ffffff" stroke-width="1.5" d="M626,-505C632,-505 638,-511 638,-517"/>
<path fill="#ffffff" stroke="#ffffff" stroke-width="1.5" d="M638,-529C638,-535 632,-541 626,-541"/>
<path fill="#ffffff" stroke="#ffffff" stroke-width="1.5" d="M592,-541C586,-541 580,-535 580,-529"/>
<path fill="#ffffff" stroke="#ffffff" stroke-width="1.5" d="M580,-517C580,-511 586,-505 592,-505"/>
<polyline fill="none" stroke="#2e3436" stroke-width="1.5" points="592,-505 626,-505 "/>
<path fill="none" stroke="#2e3436" stroke-width="1.5" d="M626,-505C632,-505 638,-511 638,-517"/>
<polyline fill="none" stroke="#2e3436" stroke-width="1.5" points="638,-517 638,-529 "/>
<path fill="none" stroke="#2e3436" stroke-width="1.5" d="M638,-529C638,-535 632,-541 626,-541"/>
<polyline fill="none" stroke="#2e3436" stroke-width="1.5" points="626,-541 592,-541 "/>
<path fill="none" stroke="#2e3436" stroke-width="1.5" d="M592,-541C586,-541 580,-535 580,-529"/>
<polyline fill="none" stroke="#2e3436" stroke-width="1.5" points="580,-529 580,-517 "/>
<path fill="none" stroke="#2e3436" stroke-width="1.5" d="M580,-517C580,-511 586,-505 592,-505"/>
<text text-anchor="middle" x="609" y="-529.8" font-family="FreeSans" font-size="8.00" fill="#1c2021">Node[5]</text>
<polyline fill="none" stroke="#2e3436" stroke-width="1.5" points="580,-523 638,-523 "/>
<text text-anchor="start" x="588" y="-511.8" font-family="FreeSans" font-size="8.00" fill="#1c2021">count = 4</text>
</g>
<!-- N2&#45;&gt;N5 -->
<g id="edge6" class="edge"><title>N2&#45;&gt;N5</title>
<path fill="none" stroke="#2e3436" stroke-width="2" d="M579.833,-768.196C508.532,-750.913 328.762,-703.192 295,-654 225.601,-552.883 475.32,-529.616 572.17,-524.433"/>
<polygon fill="#2e3436" stroke="#2e3436" points="579.692,-524.051 572.373,-527.802 575.973,-524.741 572.227,-524.931 572.202,-524.432 572.177,-523.932 575.922,-523.742 572.031,-521.061 579.692,-524.051 579.692,-524.051"/>
<text text-anchor="middle" x="298" y="-646.8" font-family="FreeSans" font-size="8.00" fill="#2e3436">X</text>
</g>
<!-- N6 -->
<g id="node9" class="node"><title>N6</title>
<polygon fill="#ffffff" stroke="#ffffff" stroke-width="1.5" points="848,-421 882,-421 894,-433 894,-445 882,-457 848,-457 836,-445 836,-433 848,-421"/>
<path fill="#ffffff" stroke="#ffffff" stroke-width="1.5" d="M882,-421C888,-421 894,-427 894,-433"/>
<path fill="#ffffff" stroke="#ffffff" stroke-width="1.5" d="M894,-445C894,-451 888,-457 882,-457"/>
<path fill="#ffffff" stroke="#ffffff" stroke-width="1.5" d="M848,-457C842,-457 836,-451 836,-445"/>
<path fill="#ffffff" stroke="#ffffff" stroke-width="1.5" d="M836,-433C836,-427 842,-421 848,-421"/>
<polyline fill="none" stroke="#2e3436" stroke-width="1.5" points="848,-421 882,-421 "/>
<path fill="none" stroke="#2e3436" stroke-width="1.5" d="M882,-421C888,-421 894,-427 894,-433"/>
<polyline fill="none" stroke="#2e3436" stroke-width="1.5" points="894,-433 894,-445 "/>
<path fill="none" stroke="#2e3436" stroke-width="1.5" d="M894,-445C894,-451 888,-457 882,-457"/>
<polyline fill="none" stroke="#2e3436" stroke-width="1.5" points="882,-457 848,-457 "/>
<path fill="none" stroke="#2e3436" stroke-width="1.5" d="M848,-457C842,-457 836,-451 836,-445"/>
<polyline fill="none" stroke="#2e3436" stroke-width="1.5" points="836,-445 836,-433 "/>
<path fill="none" stroke="#2e3436" stroke-width="1.5" d="M836,-433C836,-427 842,-421 848,-421"/>
<text text-anchor="middle" x="865" y="-445.8" font-family="FreeSans" font-size="8.00" fill="#1c2021">Node[6]</text>
<polyline fill="none" stroke="#2e3436" stroke-width="1.5" points="836,-439 894,-439 "/>
<text text-anchor="start" x="844" y="-427.8" font-family="FreeSans" font-size="8.00" fill="#1c2021">count = 5</text>
</g>
<!-- N2&#45;&gt;N6 -->
<g id="edge8" class="edge"><title>N2&#45;&gt;N6</title>
<path fill="none" stroke="#2e3436" stroke-width="2" d="M638.287,-772.581C736.611,-763.795 1052.1,-730.015 1112,-654 1183.54,-563.207 985.632,-481.012 901.157,-451.03"/>
<polygon fill="#2e3436" stroke="#2e3436" points="894.069,-448.543 902.264,-447.842 897.773,-449.313 901.312,-450.555 901.146,-451.027 900.981,-451.498 897.442,-450.257 900.029,-454.211 894.069,-448.543 894.069,-448.543"/>
<text text-anchor="middle" x="1130" y="-604.8" font-family="FreeSans" font-size="8.00" fill="#2e3436">X</text>
</g>
<!-- N7 -->
<g id="node11" class="node"><title>N7</title>
<polygon fill="#ffffff" stroke="#ffffff" stroke-width="1.5" points="849,-337 883,-337 895,-349 895,-361 883,-373 849,-373 837,-361 837,-349 849,-337"/>
<path fill="#ffffff" stroke="#ffffff" stroke-width="1.5" d="M883,-337C889,-337 895,-343 895,-349"/>
<path fill="#ffffff" stroke="#ffffff" stroke-width="1.5" d="M895,-361C895,-367 889,-373 883,-373"/>
<path fill="#ffffff" stroke="#ffffff" stroke-width="1.5" d="M849,-373C843,-373 837,-367 837,-361"/>
<path fill="#ffffff" stroke="#ffffff" stroke-width="1.5" d="M837,-349C837,-343 843,-337 849,-337"/>
<polyline fill="none" stroke="#2e3436" stroke-width="1.5" points="849,-337 883,-337 "/>
<path fill="none" stroke="#2e3436" stroke-width="1.5" d="M883,-337C889,-337 895,-343 895,-349"/>
<polyline fill="none" stroke="#2e3436" stroke-width="1.5" points="895,-349 895,-361 "/>
<path fill="none" stroke="#2e3436" stroke-width="1.5" d="M895,-361C895,-367 889,-373 883,-373"/>
<polyline fill="none" stroke="#2e3436" stroke-width="1.5" points="883,-373 849,-373 "/>
<path fill="none" stroke="#2e3436" stroke-width="1.5" d="M849,-373C843,-373 837,-367 837,-361"/>
<polyline fill="none" stroke="#2e3436" stroke-width="1.5" points="837,-361 837,-349 "/>
<path fill="none" stroke="#2e3436" stroke-width="1.5" d="M837,-349C837,-343 843,-337 849,-337"/>
<text text-anchor="middle" x="866" y="-361.8" font-family="FreeSans" font-size="8.00" fill="#1c2021">Node[7]</text>
<polyline fill="none" stroke="#2e3436" stroke-width="1.5" points="837,-355 895,-355 "/>
<text text-anchor="start" x="845" y="-343.8" font-family="FreeSans" font-size="8.00" fill="#1c2021">count = 6</text>
</g>
<!-- N2&#45;&gt;N7 -->
<g id="edge10" class="edge"><title>N2&#45;&gt;N7</title>
<path fill="none" stroke="#2e3436" stroke-width="2" d="M638.132,-774.058C758.783,-769.777 1213,-749.758 1213,-691 1213,-691 1213,-691 1213,-565 1213,-403.17 1052.63,-435.645 903,-374 902.841,-373.935 902.683,-373.869 902.524,-373.803"/>
<polygon fill="#2e3436" stroke="#2e3436" points="895.277,-370.594 903.501,-370.545 898.908,-371.655 902.337,-373.173 902.135,-373.631 901.932,-374.088 898.503,-372.57 900.768,-376.717 895.277,-370.594 895.277,-370.594"/>
<text text-anchor="middle" x="1216" y="-562.8" font-family="FreeSans" font-size="8.00" fill="#2e3436">X</text>
</g>
<!-- N8 -->
<g id="node13" class="node"><title>N8</title>
<polygon fill="#ffffff" stroke="#ffffff" stroke-width="1.5" points="911,-253 945,-253 957,-265 957,-277 945,-289 911,-289 899,-277 899,-265 911,-253"/>
<path fill="#ffffff" stroke="#ffffff" stroke-width="1.5" d="M945,-253C951,-253 957,-259 957,-265"/>
<path fill="#ffffff" stroke="#ffffff" stroke-width="1.5" d="M957,-277C957,-283 951,-289 945,-289"/>
<path fill="#ffffff" stroke="#ffffff" stroke-width="1.5" d="M911,-289C905,-289 899,-283 899,-277"/>
<path fill="#ffffff" stroke="#ffffff" stroke-width="1.5" d="M899,-265C899,-259 905,-253 911,-253"/>
<polyline fill="none" stroke="#2e3436" stroke-width="1.5" points="911,-253 945,-253 "/>
<path fill="none" stroke="#2e3436" stroke-width="1.5" d="M945,-253C951,-253 957,-259 957,-265"/>
<polyline fill="none" stroke="#2e3436" stroke-width="1.5" points="957,-265 957,-277 "/>
<path fill="none" stroke="#2e3436" stroke-width="1.5" d="M957,-277C957,-283 951,-289 945,-289"/>
<polyline fill="none" stroke="#2e3436" stroke-width="1.5" points="945,-289 911,-289 "/>
<path fill="none" stroke="#2e3436" stroke-width="1.5" d="M911,-289C905,-289 899,-283 899,-277"/>
<polyline fill="none" stroke="#2e3436" stroke-width="1.5" points="899,-277 899,-265 "/>
<path fill="none" stroke="#2e3436" stroke-width="1.5" d="M899,-265C899,-259 905,-253 911,-253"/>
<text text-anchor="middle" x="928" y="-277.8" font-family="FreeSans" font-size="8.00" fill="#1c2021">Node[8]</text>
<polyline fill="none" stroke="#2e3436" stroke-width="1.5" points="899,-271 957,-271 "/>
<text text-anchor="start" x="907" y="-259.8" font-family="FreeSans" font-size="8.00" fill="#1c2021">count = 7</text>
</g>
<!-- N2&#45;&gt;N8 -->
<g id="edge12" class="edge"><title>N2&#45;&gt;N8</title>
<path fill="none" stroke="#2e3436" stroke-width="2" d="M638.09,-774.5C767.672,-771.894 1286,-757.324 1286,-691 1286,-691 1286,-691 1286,-565 1286,-415.507 1198.66,-382.411 1069,-308 1036.56,-289.382 994.581,-279.929 964.89,-275.264"/>
<polygon fill="#2e3436" stroke="#2e3436" points="957.241,-274.125 965.156,-271.892 961.023,-274.183 964.732,-274.735 964.659,-275.23 964.585,-275.724 960.876,-275.172 964.162,-278.568 957.241,-274.125 957.241,-274.125"/>
<text text-anchor="middle" x="1288" y="-520.8" font-family="FreeSans" font-size="8.00" fill="#2e3436">X</text>
</g>
<!-- N9 -->
<g id="node15" class="node"><title>N9</title>
<polygon fill="#ffffff" stroke="#ffffff" stroke-width="1.5" points="474,-169 508,-169 520,-181 520,-193 508,-205 474,-205 462,-193 462,-181 474,-169"/>
<path fill="#ffffff" stroke="#ffffff" stroke-width="1.5" d="M508,-169C514,-169 520,-175 520,-181"/>
<path fill="#ffffff" stroke="#ffffff" stroke-width="1.5" d="M520,-193C520,-199 514,-205 508,-205"/>
<path fill="#ffffff" stroke="#ffffff" stroke-width="1.5" d="M474,-205C468,-205 462,-199 462,-193"/>
<path fill="#ffffff" stroke="#ffffff" stroke-width="1.5" d="M462,-181C462,-175 468,-169 474,-169"/>
<polyline fill="none" stroke="#2e3436" stroke-width="1.5" points="474,-169 508,-169 "/>
<path fill="none" stroke="#2e3436" stroke-width="1.5" d="M508,-169C514,-169 520,-175 520,-181"/>
<polyline fill="none" stroke="#2e3436" stroke-width="1.5" points="520,-181 520,-193 "/>
<path fill="none" stroke="#2e3436" stroke-width="1.5" d="M520,-193C520,-199 514,-205 508,-205"/>
<polyline fill="none" stroke="#2e3436" stroke-width="1.5" points="508,-205 474,-205 "/>
<path fill="none" stroke="#2e3436" stroke-width="1.5" d="M474,-205C468,-205 462,-199 462,-193"/>
<polyline fill="none" stroke="#2e3436" stroke-width="1.5" points="462,-193 462,-181 "/>
<path fill="none" stroke="#2e3436" stroke-width="1.5" d="M462,-181C462,-175 468,-169 474,-169"/>
<text text-anchor="middle" x="491" y="-193.8" font-family="FreeSans" font-size="8.00" fill="#1c2021">Node[9]</text>
<polyline fill="none" stroke="#2e3436" stroke-width="1.5" points="462,-187 520,-187 "/>
<text text-anchor="start" x="470" y="-175.8" font-family="FreeSans" font-size="8.00" fill="#1c2021">count = 8</text>
</g>
<!-- N2&#45;&gt;N9 -->
<g id="edge14" class="edge"><title>N2&#45;&gt;N9</title>
<path fill="none" stroke="#2e3436" stroke-width="2" d="M579.88,-772.974C476.316,-765.387 132,-736.722 132,-691 132,-691 132,-691 132,-271 132,-205.304 362.81,-190.956 454.291,-187.849"/>
<polygon fill="#2e3436" stroke="#2e3436" points="461.926,-187.605 454.537,-191.218 458.194,-188.225 454.445,-188.344 454.429,-187.845 454.413,-187.345 458.162,-187.225 454.322,-184.471 461.926,-187.605 461.926,-187.605"/>
<text text-anchor="middle" x="135" y="-478.8" font-family="FreeSans" font-size="8.00" fill="#2e3436">X</text>
</g>
<!-- N10 -->
<g id="node17" class="node"><title>N10</title>
<polygon fill="#ffffff" stroke="#ffffff" stroke-width="1.5" points="627,-85 661,-85 673,-97 673,-109 661,-121 627,-121 615,-109 615,-97 627,-85"/>
<path fill="#ffffff" stroke="#ffffff" stroke-width="1.5" d="M661,-85C667,-85 673,-91 673,-97"/>
<path fill="#ffffff" stroke="#ffffff" stroke-width="1.5" d="M673,-109C673,-115 667,-121 661,-121"/>
<path fill="#ffffff" stroke="#ffffff" stroke-width="1.5" d="M627,-121C621,-121 615,-115 615,-109"/>
<path fill="#ffffff" stroke="#ffffff" stroke-width="1.5" d="M615,-97C615,-91 621,-85 627,-85"/>
<polyline fill="none" stroke="#2e3436" stroke-width="1.5" points="627,-85 661,-85 "/>
<path fill="none" stroke="#2e3436" stroke-width="1.5" d="M661,-85C667,-85 673,-91 673,-97"/>
<polyline fill="none" stroke="#2e3436" stroke-width="1.5" points="673,-97 673,-109 "/>
<path fill="none" stroke="#2e3436" stroke-width="1.5" d="M673,-109C673,-115 667,-121 661,-121"/>
<polyline fill="none" stroke="#2e3436" stroke-width="1.5" points="661,-121 627,-121 "/>
<path fill="none" stroke="#2e3436" stroke-width="1.5" d="M627,-121C621,-121 615,-115 615,-109"/>
<polyline fill="none" stroke="#2e3436" stroke-width="1.5" points="615,-109 615,-97 "/>
<path fill="none" stroke="#2e3436" stroke-width="1.5" d="M615,-97C615,-91 621,-85 627,-85"/>
<text text-anchor="middle" x="644" y="-109.8" font-family="FreeSans" font-size="8.00" fill="#1c2021">Node[10]</text>
<polyline fill="none" stroke="#2e3436" stroke-width="1.5" points="615,-103 673,-103 "/>
<text text-anchor="start" x="623" y="-91.8" font-family="FreeSans" font-size="8.00" fill="#1c2021">count = 9</text>
</g>
<!-- N2&#45;&gt;N10 -->
<g id="edge16" class="edge"><title>N2&#45;&gt;N10</title>
<path fill="none" stroke="#2e3436" stroke-width="2" d="M579.802,-773.537C467.95,-767.55 73,-742.746 73,-691 73,-691 73,-691 73,-187 73,-118.919 157.442,-176.422 225,-168 235.277,-166.719 584.957,-124.53 595,-122 599.194,-120.943 603.516,-119.626 607.773,-118.182"/>
<polygon fill="#2e3436" stroke="#2e3436" points="614.843,-115.654 608.918,-121.357 611.481,-117.387 607.95,-118.65 607.781,-118.179 607.613,-117.708 611.144,-116.446 606.645,-115.001 614.843,-115.654 614.843,-115.654"/>
<text text-anchor="middle" x="76" y="-436.8" font-family="FreeSans" font-size="8.00" fill="#2e3436">X</text>
</g>
<!-- N11 -->
<g id="node19" class="node"><title>N11</title>
<polygon fill="#ffffff" stroke="#ffffff" stroke-width="1.5" points="624.5,-1 663.5,-1 675.5,-13 675.5,-25 663.5,-37 624.5,-37 612.5,-25 612.5,-13 624.5,-1"/>
<path fill="#ffffff" stroke="#ffffff" stroke-width="1.5" d="M663.5,-1C669.5,-1 675.5,-7 675.5,-13"/>
<path fill="#ffffff" stroke="#ffffff" stroke-width="1.5" d="M675.5,-25C675.5,-31 669.5,-37 663.5,-37"/>
<path fill="#ffffff" stroke="#ffffff" stroke-width="1.5" d="M624.5,-37C618.5,-37 612.5,-31 612.5,-25"/>
<path fill="#ffffff" stroke="#ffffff" stroke-width="1.5" d="M612.5,-13C612.5,-7 618.5,-1 624.5,-1"/>
<polyline fill="none" stroke="#2e3436" stroke-width="1.5" points="624.5,-1 663.5,-1 "/>
<path fill="none" stroke="#2e3436" stroke-width="1.5" d="M663.5,-1C669.5,-1 675.5,-7 675.5,-13"/>
<polyline fill="none" stroke="#2e3436" stroke-width="1.5" points="675.5,-13 675.5,-25 "/>
<path fill="none" stroke="#2e3436" stroke-width="1.5" d="M675.5,-25C675.5,-31 669.5,-37 663.5,-37"/>
<polyline fill="none" stroke="#2e3436" stroke-width="1.5" points="663.5,-37 624.5,-37 "/>
<path fill="none" stroke="#2e3436" stroke-width="1.5" d="M624.5,-37C618.5,-37 612.5,-31 612.5,-25"/>
<polyline fill="none" stroke="#2e3436" stroke-width="1.5" points="612.5,-25 612.5,-13 "/>
<path fill="none" stroke="#2e3436" stroke-width="1.5" d="M612.5,-13C612.5,-7 618.5,-1 624.5,-1"/>
<text text-anchor="middle" x="644" y="-25.8" font-family="FreeSans" font-size="8.00" fill="#1c2021">Node[11]</text>
<polyline fill="none" stroke="#2e3436" stroke-width="1.5" points="612.5,-19 675.5,-19 "/>
<text text-anchor="start" x="620.5" y="-7.8" font-family="FreeSans" font-size="8.00" fill="#1c2021">count = 10</text>
</g>
<!-- N2&#45;&gt;N11 -->
<g id="edge18" class="edge"><title>N2&#45;&gt;N11</title>
<path fill="none" stroke="#2e3436" stroke-width="2" d="M579.627,-774.083C457.977,-769.904 0,-750.235 0,-691 0,-691 0,-691 0,-103 0,-41.7217 464.393,-23.9431 604.472,-19.9742"/>
<polygon fill="#2e3436" stroke="#2e3436" points="612.064,-19.7637 604.66,-23.3454 608.329,-20.3675 604.581,-20.4715 604.567,-19.9717 604.553,-19.4718 608.302,-19.3679 604.473,-16.5979 612.064,-19.7637 612.064,-19.7637"/>
<text text-anchor="middle" x="3" y="-394.8" font-family="FreeSans" font-size="8.00" fill="#2e3436">X</text>
</g>
<!-- N3&#45;&gt;N4 -->
<g id="edge20" class="edge"><title>N3&#45;&gt;N4</title>
<path fill="none" stroke="#2e3436" stroke-width="2" d="M677.122,-672.773C664.354,-660.445 647.365,-644.042 633.547,-630.701"/>
<polygon fill="#2e3436" stroke="#2e3436" points="627.841,-625.191 635.581,-627.973 630.886,-627.436 633.584,-630.041 633.236,-630.401 632.889,-630.76 630.191,-628.156 630.892,-632.829 627.841,-625.191 627.841,-625.191"/>
<text text-anchor="middle" x="658" y="-646.8" font-family="FreeSans" font-size="8.00" fill="#2e3436">X</text>
</g>
<!-- N3&#45;&gt;N5 -->
<g id="edge22" class="edge"><title>N3&#45;&gt;N5</title>
<path fill="none" stroke="#2e3436" stroke-width="2" d="M689.599,-672.633C681.993,-651.629 668.38,-616.472 653,-588 645.459,-574.04 635.675,-559.332 627.249,-547.444"/>
<polygon fill="#2e3436" stroke="#2e3436" points="622.73,-541.153 629.847,-545.276 625.324,-543.907 627.512,-546.953 627.106,-547.245 626.7,-547.536 624.512,-544.491 624.364,-549.214 622.73,-541.153 622.73,-541.153"/>
<text text-anchor="middle" x="673" y="-604.8" font-family="FreeSans" font-size="8.00" fill="#2e3436">X</text>
</g>
<!-- N3&#45;&gt;N6 -->
<g id="edge24" class="edge"><title>N3&#45;&gt;N6</title>
<path fill="none" stroke="#2e3436" stroke-width="2" d="M715.195,-672.843C742.405,-646.262 792.391,-594.223 824,-542 838.977,-517.256 850.499,-486.068 857.461,-464.529"/>
<polygon fill="#2e3436" stroke="#2e3436" points="859.732,-457.339 860.691,-465.508 859.079,-461.066 857.95,-464.642 857.473,-464.491 856.996,-464.341 858.126,-460.765 854.255,-463.475 859.732,-457.339 859.732,-457.339"/>
<text text-anchor="middle" x="814" y="-562.8" font-family="FreeSans" font-size="8.00" fill="#2e3436">X</text>
</g>
<!-- N3&#45;&gt;N7 -->
<g id="edge26" class="edge"><title>N3&#45;&gt;N7</title>
<path fill="none" stroke="#2e3436" stroke-width="2" d="M725.133,-675.165C736.232,-668.872 748.879,-661.382 760,-654 851.168,-593.485 878.164,-562.99 909,-458 913.759,-441.796 913.865,-436.173 909,-420 904.56,-405.241 895.558,-390.748 886.933,-379.205"/>
<polygon fill="#2e3436" stroke="#2e3436" points="882.211,-373.113 889.474,-376.974 884.904,-375.771 887.201,-378.735 886.806,-379.041 886.411,-379.348 884.113,-376.384 884.138,-381.109 882.211,-373.113 882.211,-373.113"/>
<text text-anchor="middle" x="896" y="-520.8" font-family="FreeSans" font-size="8.00" fill="#2e3436">X</text>
</g>
<!-- N3&#45;&gt;N8 -->
<g id="edge28" class="edge"><title>N3&#45;&gt;N8</title>
<path fill="none" stroke="#2e3436" stroke-width="2" d="M725.259,-679.933C743.466,-672.874 767.279,-663.329 788,-654 919.956,-594.594 958.64,-571.825 1048,-458 1081.93,-414.781 1096.07,-383.234 1068,-336 1046.43,-299.699 998.364,-283.46 964.599,-276.338"/>
<polygon fill="#2e3436" stroke="#2e3436" points="957.201,-274.874 965.214,-273.02 960.977,-275.112 964.656,-275.84 964.559,-276.33 964.462,-276.821 960.783,-276.093 963.904,-279.641 957.201,-274.874 957.201,-274.874"/>
<text text-anchor="middle" x="1036" y="-478.8" font-family="FreeSans" font-size="8.00" fill="#2e3436">X</text>
</g>
<!-- N3&#45;&gt;N9 -->
<g id="edge30" class="edge"><title>N3&#45;&gt;N9</title>
<path fill="none" stroke="#2e3436" stroke-width="2" d="M666.89,-683.259C653.283,-679.709 636.842,-675.517 622,-672 555.836,-656.32 323,-674.996 323,-607 323,-607 323,-607 323,-481 323,-370.468 356.221,-342.275 420,-252 431.122,-236.258 446.634,-221.507 460.322,-210.049"/>
<polygon fill="#2e3436" stroke="#2e3436" points="466.461,-205.025 462.795,-212.387 463.876,-207.787 460.974,-210.162 460.657,-209.775 460.341,-209.388 463.243,-207.013 458.52,-207.163 466.461,-205.025 466.461,-205.025"/>
<text text-anchor="middle" x="331" y="-436.8" font-family="FreeSans" font-size="8.00" fill="#2e3436">X</text>
</g>
<!-- N3&#45;&gt;N10 -->
<g id="edge32" class="edge"><title>N3&#45;&gt;N10</title>
<path fill="none" stroke="#2e3436" stroke-width="2" d="M666.734,-682.165C653.236,-678.433 636.929,-674.403 622,-672 505.451,-653.242 468.545,-692.643 357,-654 256.311,-619.118 191,-587.56 191,-481 191,-481 191,-481 191,-313 191,-114.389 407.471,-187.415 595,-122 599.139,-120.556 603.451,-118.985 607.724,-117.385"/>
<polygon fill="#2e3436" stroke="#2e3436" points="614.843,-114.683 609.028,-120.5 611.514,-116.481 608.008,-117.812 607.831,-117.345 607.653,-116.877 611.159,-115.546 606.633,-114.189 614.843,-114.683 614.843,-114.683"/>
<text text-anchor="middle" x="194" y="-394.8" font-family="FreeSans" font-size="8.00" fill="#2e3436">X</text>
</g>
<!-- N3&#45;&gt;N11 -->
<g id="edge34" class="edge"><title>N3&#45;&gt;N11</title>
<path fill="none" stroke="#2e3436" stroke-width="2" d="M725.239,-686.31C841.14,-665.903 1262,-573.844 1262,-313 1262,-313 1262,-313 1262,-103 1262,-44.4111 820.249,-24.8478 683.715,-20.2006"/>
<polygon fill="#2e3436" stroke="#2e3436" points="675.925,-19.9404 683.534,-16.8177 679.69,-19.5659 683.438,-19.6911 683.421,-20.1908 683.404,-20.6905 679.656,-20.5653 683.308,-23.5639 675.925,-19.9404 675.925,-19.9404"/>
<text text-anchor="middle" x="1263" y="-352.8" font-family="FreeSans" font-size="8.00" fill="#2e3436">X</text>
</g>
<!-- N4&#45;&gt;N5 -->
<g id="edge36" class="edge"><title>N4&#45;&gt;N5</title>
<path fill="none" stroke="#2e3436" stroke-width="2" d="M609,-588.773C609,-577.105 609,-561.787 609,-548.87"/>
<polygon fill="#2e3436" stroke="#2e3436" points="609,-541.191 612.375,-548.691 609.5,-544.941 609.5,-548.691 609,-548.691 608.5,-548.691 608.5,-544.941 605.625,-548.691 609,-541.191 609,-541.191"/>
<text text-anchor="middle" x="612" y="-562.8" font-family="FreeSans" font-size="8.00" fill="#2e3436">X</text>
</g>
<!-- N4&#45;&gt;N6 -->
<g id="edge38" class="edge"><title>N4&#45;&gt;N6</title>
<path fill="none" stroke="#2e3436" stroke-width="2" d="M638.131,-591.012C640.749,-589.891 643.396,-588.865 646,-588 691.768,-572.806 711.032,-593.754 753,-570 764.939,-563.243 817.249,-498.939 845.962,-463.006"/>
<polygon fill="#2e3436" stroke="#2e3436" points="850.696,-457.072 848.658,-465.039 848.749,-460.315 846.41,-463.247 846.019,-462.935 845.629,-462.623 847.967,-459.691 843.381,-460.83 850.696,-457.072 850.696,-457.072"/>
<text text-anchor="middle" x="814" y="-520.8" font-family="FreeSans" font-size="8.00" fill="#2e3436">X</text>
</g>
<!-- N4&#45;&gt;N7 -->
<g id="edge40" class="edge"><title>N4&#45;&gt;N7</title>
<path fill="none" stroke="#2e3436" stroke-width="2" d="M634.051,-588.856C664.508,-566.285 716.815,-525.84 757,-486 791.818,-451.481 827.233,-406.759 847.882,-379.508"/>
<polygon fill="#2e3436" stroke="#2e3436" points="852.556,-373.305 850.738,-381.326 850.699,-376.601 848.442,-379.596 848.043,-379.295 847.643,-378.994 849.9,-375.999 845.347,-377.264 852.556,-373.305 852.556,-373.305"/>
<text text-anchor="middle" x="768" y="-478.8" font-family="FreeSans" font-size="8.00" fill="#2e3436">X</text>
</g>
<!-- N4&#45;&gt;N8 -->
<g id="edge42" class="edge"><title>N4&#45;&gt;N8</title>
<path fill="none" stroke="#2e3436" stroke-width="2" d="M638.072,-590.825C640.703,-589.744 643.369,-588.778 646,-588 722.249,-565.446 749.806,-598.598 824,-570 853.362,-558.682 1037.81,-430.086 1052,-402 1076.8,-352.918 1009.23,-309.532 964.344,-287.122"/>
<polygon fill="#2e3436" stroke="#2e3436" points="957.353,-283.708 965.573,-283.966 960.942,-284.904 964.312,-286.55 964.092,-286.999 963.873,-287.448 960.503,-285.803 962.611,-290.032 957.353,-283.708 957.353,-283.708"/>
<text text-anchor="middle" x="1038" y="-436.8" font-family="FreeSans" font-size="8.00" fill="#2e3436">X</text>
</g>
<!-- N4&#45;&gt;N9 -->
<g id="edge44" class="edge"><title>N4&#45;&gt;N9</title>
<path fill="none" stroke="#2e3436" stroke-width="2" d="M579.942,-603.017C541.431,-597.22 476.222,-585.445 458,-570 416.687,-534.983 424.622,-510.145 410,-458 402.022,-429.549 395.991,-420.931 402,-392 416.299,-323.156 454.953,-249.052 476.315,-211.634"/>
<polygon fill="#2e3436" stroke="#2e3436" points="480.092,-205.084 479.269,-213.267 478.652,-208.582 476.779,-211.831 476.346,-211.581 475.912,-211.331 477.786,-208.082 473.422,-209.895 480.092,-205.084 480.092,-205.084"/>
<text text-anchor="middle" x="405" y="-394.8" font-family="FreeSans" font-size="8.00" fill="#2e3436">X</text>
</g>
<!-- N4&#45;&gt;N10 -->
<g id="edge46" class="edge"><title>N4&#45;&gt;N10</title>
<path fill="none" stroke="#2e3436" stroke-width="2" d="M592.789,-588.887C582.932,-576.611 571.262,-559.492 566,-542 561.135,-525.827 565.099,-520.865 566,-504 573.691,-360.016 618.36,-191.818 636.424,-128.675"/>
<polygon fill="#2e3436" stroke="#2e3436" points="638.59,-121.16 639.755,-129.301 638.032,-124.901 636.993,-128.505 636.512,-128.366 636.032,-128.228 637.071,-124.624 633.27,-127.431 638.59,-121.16 638.59,-121.16"/>
<text text-anchor="middle" x="590" y="-352.8" font-family="FreeSans" font-size="8.00" fill="#2e3436">X</text>
</g>
<!-- N4&#45;&gt;N11 -->
<g id="edge48" class="edge"><title>N4&#45;&gt;N11</title>
<path fill="none" stroke="#2e3436" stroke-width="2" d="M579.926,-606.395C494.46,-603.837 250,-590.61 250,-523 250,-523 250,-523 250,-103 250,-66.9582 505.445,-34.4973 604.97,-23.2179"/>
<polygon fill="#2e3436" stroke="#2e3436" points="612.423,-22.3798 605.347,-26.5718 608.753,-23.2958 605.026,-23.7148 604.97,-23.2179 604.914,-22.7211 608.641,-22.302 604.593,-19.8641 612.423,-22.3798 612.423,-22.3798"/>
<text text-anchor="middle" x="253" y="-310.8" font-family="FreeSans" font-size="8.00" fill="#2e3436">X</text>
</g>
<!-- N5&#45;&gt;N6 -->
<g id="edge50" class="edge"><title>N5&#45;&gt;N6</title>
<path fill="none" stroke="#2e3436" stroke-width="2" d="M638.366,-513.364C685.433,-497.92 777.646,-467.663 828.745,-450.896"/>
<polygon fill="#2e3436" stroke="#2e3436" points="835.976,-448.523 829.902,-454.069 832.569,-450.168 829.006,-451.337 828.85,-450.862 828.694,-450.387 832.257,-449.218 827.798,-447.655 835.976,-448.523 835.976,-448.523"/>
<text text-anchor="middle" x="747" y="-478.8" font-family="FreeSans" font-size="8.00" fill="#2e3436">X</text>
</g>
<!-- N5&#45;&gt;N7 -->
<g id="edge52" class="edge"><title>N5&#45;&gt;N7</title>
<path fill="none" stroke="#2e3436" stroke-width="2" d="M638.344,-510.447C652.555,-503.892 669.614,-495.304 684,-486 722.705,-460.969 726.998,-447.486 764,-420 782.009,-406.622 787.116,-404.112 806,-392 813.806,-386.993 822.249,-381.708 830.267,-376.749"/>
<polygon fill="#2e3436" stroke="#2e3436" points="836.878,-372.673 832.265,-379.481 833.949,-375.066 830.757,-377.034 830.494,-376.608 830.232,-376.183 833.424,-374.215 828.723,-373.736 836.878,-372.673 836.878,-372.673"/>
<text text-anchor="middle" x="767" y="-436.8" font-family="FreeSans" font-size="8.00" fill="#2e3436">X</text>
</g>
<!-- N5&#45;&gt;N8 -->
<g id="edge54" class="edge"><title>N5&#45;&gt;N8</title>
<path fill="none" stroke="#2e3436" stroke-width="2" d="M626.004,-504.793C646.075,-483.632 680.802,-448.034 713,-420 759.393,-379.607 772.344,-370.897 823,-336 845.622,-320.415 871.903,-304.148 892.513,-291.785"/>
<polygon fill="#2e3436" stroke="#2e3436" points="898.994,-287.914 894.286,-294.658 896.031,-290.267 892.811,-292.19 892.555,-291.76 892.298,-291.331 895.518,-289.408 890.824,-288.863 898.994,-287.914 898.994,-287.914"/>
<text text-anchor="middle" x="748" y="-394.8" font-family="FreeSans" font-size="8.00" fill="#2e3436">X</text>
</g>
<!-- N5&#45;&gt;N9 -->
<g id="edge56" class="edge"><title>N5&#45;&gt;N9</title>
<path fill="none" stroke="#2e3436" stroke-width="2" d="M595.748,-504.747C576.743,-477.632 542.055,-424.474 524,-374 504.18,-318.592 495.956,-249.537 492.793,-212.804"/>
<polygon fill="#2e3436" stroke="#2e3436" points="492.159,-205.044 496.133,-212.244 492.962,-208.741 493.268,-212.479 492.769,-212.519 492.271,-212.56 491.966,-208.822 489.406,-212.794 492.159,-205.044 492.159,-205.044"/>
<text text-anchor="middle" x="527" y="-352.8" font-family="FreeSans" font-size="8.00" fill="#2e3436">X</text>
</g>
<!-- N5&#45;&gt;N10 -->
<g id="edge58" class="edge"><title>N5&#45;&gt;N10</title>
<path fill="none" stroke="#2e3436" stroke-width="2" d="M609.265,-504.73C610.064,-467.458 613.26,-380.084 626,-308 627.445,-299.824 629.594,-298.183 631,-290 640.787,-233.047 643.251,-165.132 643.843,-128.864"/>
<polygon fill="#2e3436" stroke="#2e3436" points="643.947,-121.197 647.22,-128.742 644.396,-124.953 644.345,-128.703 643.845,-128.696 643.345,-128.689 643.396,-124.94 640.47,-128.65 643.947,-121.197 643.947,-121.197"/>
<text text-anchor="middle" x="629" y="-310.8" font-family="FreeSans" font-size="8.00" fill="#2e3436">X</text>
</g>
<!-- N5&#45;&gt;N11 -->
<g id="edge60" class="edge"><title>N5&#45;&gt;N11</title>
<path fill="none" stroke="#2e3436" stroke-width="2" d="M583.524,-504.934C568.306,-493.052 549.555,-476.344 537,-458 460.776,-346.635 390.609,-290.607 447,-168 478.02,-100.557 557.171,-56.1923 605.173,-34.5343"/>
<polygon fill="#2e3436" stroke="#2e3436" points="612.309,-31.3784 606.815,-37.4987 609.082,-33.3525 605.652,-34.8693 605.45,-34.4121 605.248,-33.9548 608.677,-32.4379 604.085,-31.3255 612.309,-31.3784 612.309,-31.3784"/>
<text text-anchor="middle" x="436" y="-268.8" font-family="FreeSans" font-size="8.00" fill="#2e3436">X</text>
</g>
<!-- N6&#45;&gt;N7 -->
<g id="edge62" class="edge"><title>N6&#45;&gt;N7</title>
<path fill="none" stroke="#2e3436" stroke-width="2" d="M865.217,-420.773C865.356,-409.105 865.538,-393.787 865.692,-380.87"/>
<polygon fill="#2e3436" stroke="#2e3436" points="865.783,-373.191 869.069,-380.731 866.239,-376.947 866.194,-380.697 865.694,-380.691 865.194,-380.685 865.239,-376.935 862.319,-380.65 865.783,-373.191 865.783,-373.191"/>
<text text-anchor="middle" x="868" y="-394.8" font-family="FreeSans" font-size="8.00" fill="#2e3436">X</text>
</g>
<!-- N6&#45;&gt;N8 -->
<g id="edge64" class="edge"><title>N6&#45;&gt;N8</title>
<path fill="none" stroke="#2e3436" stroke-width="2" d="M880.724,-420.927C890.658,-408.535 902.916,-391.27 910,-374 920.263,-348.981 924.677,-318.202 926.574,-296.838"/>
<polygon fill="#2e3436" stroke="#2e3436" points="927.184,-289.143 929.955,-296.887 927.386,-292.921 927.089,-296.659 926.591,-296.62 926.093,-296.58 926.389,-292.842 923.227,-296.353 927.184,-289.143 927.184,-289.143"/>
<text text-anchor="middle" x="923" y="-352.8" font-family="FreeSans" font-size="8.00" fill="#2e3436">X</text>
</g>
<!-- N6&#45;&gt;N9 -->
<g id="edge66" class="edge"><title>N6&#45;&gt;N9</title>
<path fill="none" stroke="#2e3436" stroke-width="2" d="M835.609,-428.732C818.084,-422.104 795.683,-412.73 777,-402 674.202,-342.962 565.734,-252.467 517.176,-210.223"/>
<polygon fill="#2e3436" stroke="#2e3436" points="511.279,-205.074 519.149,-207.465 514.433,-207.164 517.257,-209.63 516.929,-210.007 516.6,-210.384 513.775,-207.917 514.709,-212.549 511.279,-205.074 511.279,-205.074"/>
<text text-anchor="middle" x="651" y="-310.8" font-family="FreeSans" font-size="8.00" fill="#2e3436">X</text>
</g>
<!-- N6&#45;&gt;N10 -->
<g id="edge68" class="edge"><title>N6&#45;&gt;N10</title>
<path fill="none" stroke="#2e3436" stroke-width="2" d="M852.587,-420.793C843.97,-407.916 832.395,-390.14 823,-374 763.999,-272.635 779.895,-226.785 701,-140 694.862,-133.248 687.23,-127.199 679.567,-122.044"/>
<polygon fill="#2e3436" stroke="#2e3436" points="673.155,-117.928 681.289,-119.139 676.581,-119.533 679.736,-121.558 679.466,-121.979 679.196,-122.4 676.04,-120.374 677.643,-124.819 673.155,-117.928 673.155,-117.928"/>
<text text-anchor="middle" x="786" y="-268.8" font-family="FreeSans" font-size="8.00" fill="#2e3436">X</text>
</g>
<!-- N6&#45;&gt;N11 -->
<g id="edge70" class="edge"><title>N6&#45;&gt;N11</title>
<path fill="none" stroke="#2e3436" stroke-width="2" d="M894.193,-424.776C948.592,-395.985 1060,-325.271 1060,-229 1060,-229 1060,-229 1060,-103 1060,-60.9935 1017.93,-69.03 978,-56 924.043,-38.3947 759.17,-26.1776 683.148,-21.328"/>
<polygon fill="#2e3436" stroke="#2e3436" points="675.638,-20.8545 683.336,-17.9582 679.412,-20.5915 683.155,-20.8275 683.123,-21.3265 683.092,-21.8255 679.349,-21.5895 682.911,-24.6948 675.638,-20.8545 675.638,-20.8545"/>
<text text-anchor="middle" x="1063" y="-226.8" font-family="FreeSans" font-size="8.00" fill="#2e3436">X</text>
</g>
<!-- N7&#45;&gt;N8 -->
<g id="edge72" class="edge"><title>N7&#45;&gt;N8</title>
<path fill="none" stroke="#2e3436" stroke-width="2" d="M879.453,-336.773C888.39,-324.665 900.228,-308.626 909.977,-295.418"/>
<polygon fill="#2e3436" stroke="#2e3436" points="914.573,-289.191 912.835,-297.23 912.749,-292.505 910.522,-295.522 910.119,-295.226 909.717,-294.929 911.944,-291.911 907.404,-293.221 914.573,-289.191 914.573,-289.191"/>
<text text-anchor="middle" x="901" y="-310.8" font-family="FreeSans" font-size="8.00" fill="#2e3436">X</text>
</g>
<!-- N7&#45;&gt;N9 -->
<g id="edge74" class="edge"><title>N7&#45;&gt;N9</title>
<path fill="none" stroke="#2e3436" stroke-width="2" d="M836.886,-341.957C769.12,-311.598 600.981,-236.272 526.958,-203.109"/>
<polygon fill="#2e3436" stroke="#2e3436" points="520.095,-200.035 528.319,-200.021 523.722,-201.111 527.144,-202.645 526.94,-203.101 526.735,-203.557 523.313,-202.024 525.56,-206.181 520.095,-200.035 520.095,-200.035"/>
<text text-anchor="middle" x="718" y="-268.8" font-family="FreeSans" font-size="8.00" fill="#2e3436">X</text>
</g>
<!-- N7&#45;&gt;N10 -->
<g id="edge76" class="edge"><title>N7&#45;&gt;N10</title>
<path fill="none" stroke="#2e3436" stroke-width="2" d="M862.983,-336.991C855.13,-295.81 830.176,-194.154 768,-140 754.865,-128.56 712.145,-117.403 680.501,-110.384"/>
<polygon fill="#2e3436" stroke="#2e3436" points="673.125,-108.778 681.171,-107.076 676.895,-109.087 680.56,-109.885 680.453,-110.374 680.347,-110.862 676.683,-110.064 679.735,-113.672 673.125,-108.778 673.125,-108.778"/>
<text text-anchor="middle" x="834" y="-226.8" font-family="FreeSans" font-size="8.00" fill="#2e3436">X</text>
</g>
<!-- N7&#45;&gt;N11 -->
<g id="edge78" class="edge"><title>N7&#45;&gt;N11</title>
<path fill="none" stroke="#2e3436" stroke-width="2" d="M895.293,-338.45C934.998,-315.784 1001,-277.176 1001,-271 1001,-271 1001,-271 1001,-103 1001,-38.2824 775.887,-23.3794 683.178,-19.986"/>
<polygon fill="#2e3436" stroke="#2e3436" points="675.681,-19.7262 683.294,-16.613 679.446,-19.3564 683.194,-19.4863 683.177,-19.986 683.16,-20.4857 679.412,-20.3558 683.06,-23.359 675.681,-19.7262 675.681,-19.7262"/>
<text text-anchor="middle" x="1004" y="-184.8" font-family="FreeSans" font-size="8.00" fill="#2e3436">X</text>
</g>
<!-- N8&#45;&gt;N9 -->
<g id="edge80" class="edge"><title>N8&#45;&gt;N9</title>
<path fill="none" stroke="#2e3436" stroke-width="2" d="M898.989,-265.423C821.995,-250.624 612.59,-210.372 527.59,-194.033"/>
<polygon fill="#2e3436" stroke="#2e3436" points="520.001,-192.575 528.003,-190.676 523.778,-192.791 527.461,-193.499 527.366,-193.99 527.272,-194.481 523.589,-193.773 526.729,-197.305 520.001,-192.575 520.001,-192.575"/>
<text text-anchor="middle" x="725" y="-226.8" font-family="FreeSans" font-size="8.00" fill="#2e3436">X</text>
</g>
<!-- N8&#45;&gt;N10 -->
<g id="edge82" class="edge"><title>N8&#45;&gt;N10</title>
<path fill="none" stroke="#2e3436" stroke-width="2" d="M916.276,-252.755C895.046,-220.281 850.284,-154.492 827,-140 803.067,-125.104 727.176,-113.369 680.98,-107.376"/>
<polygon fill="#2e3436" stroke="#2e3436" points="673.276,-106.395 681.143,-103.995 677.06,-106.373 680.779,-106.847 680.716,-107.343 680.653,-107.839 676.933,-107.365 680.289,-110.691 673.276,-106.395 673.276,-106.395"/>
<text text-anchor="middle" x="886" y="-184.8" font-family="FreeSans" font-size="8.00" fill="#2e3436">X</text>
</g>
<!-- N8&#45;&gt;N11 -->
<g id="edge84" class="edge"><title>N8&#45;&gt;N11</title>
<path fill="none" stroke="#2e3436" stroke-width="2" d="M926.101,-252.956C923.01,-230.986 915.174,-193.645 896,-168 841.242,-94.7615 738.977,-50.8705 683.031,-31.2516"/>
<polygon fill="#2e3436" stroke="#2e3436" points="675.784,-28.7554 683.974,-28.007 679.492,-29.504 683.038,-30.7253 682.875,-31.198 682.712,-31.6707 679.167,-30.4494 681.776,-34.389 675.784,-28.7554 675.784,-28.7554"/>
<text text-anchor="middle" x="883" y="-142.8" font-family="FreeSans" font-size="8.00" fill="#2e3436">X</text>
</g>
<!-- N9&#45;&gt;N10 -->
<g id="edge86" class="edge"><title>N9&#45;&gt;N10</title>
<path fill="none" stroke="#2e3436" stroke-width="2" d="M520.138,-171.003C545.236,-157.223 581.546,-137.288 608.368,-122.563"/>
<polygon fill="#2e3436" stroke="#2e3436" points="614.97,-118.938 610.02,-125.506 611.924,-121.181 608.637,-122.986 608.396,-122.547 608.155,-122.109 611.442,-120.304 606.772,-119.589 614.97,-118.938 614.97,-118.938"/>
<text text-anchor="middle" x="575" y="-142.8" font-family="FreeSans" font-size="8.00" fill="#2e3436">X</text>
</g>
<!-- N9&#45;&gt;N11 -->
<g id="edge88" class="edge"><title>N9&#45;&gt;N11</title>
<path fill="none" stroke="#2e3436" stroke-width="2" d="M507.665,-168.701C535.56,-138.072 591.673,-76.4572 622.501,-42.6067"/>
<polygon fill="#2e3436" stroke="#2e3436" points="627.587,-37.0219 625.032,-44.8395 625.432,-40.1311 622.907,-42.9037 622.537,-42.567 622.168,-42.2303 624.693,-39.4578 620.042,-40.2945 627.587,-37.0219 627.587,-37.0219"/>
<text text-anchor="middle" x="585" y="-100.8" font-family="FreeSans" font-size="8.00" fill="#2e3436">X</text>
</g>
<!-- N10&#45;&gt;N11 -->
<g id="edge90" class="edge"><title>N10&#45;&gt;N11</title>
<path fill="none" stroke="#2e3436" stroke-width="2" d="M644,-84.7733C644,-73.1053 644,-57.7874 644,-44.8699"/>
<polygon fill="#2e3436" stroke="#2e3436" points="644,-37.1912 647.375,-44.6911 644.5,-40.9412 644.5,-44.6912 644,-44.6912 643.5,-44.6912 643.5,-40.9412 640.625,-44.6912 644,-37.1912 644,-37.1912"/>
<text text-anchor="middle" x="647" y="-58.8" font-family="FreeSans" font-size="8.00" fill="#2e3436">X</text>
</g>
</g>
</svg>
