<?xml version="1.0" encoding="UTF-8" standalone="no"?>
<!DOCTYPE svg PUBLIC "-//W3C//DTD SVG 1.1//EN"
 "http://www.w3.org/Graphics/SVG/1.1/DTD/svg11.dtd">
<!-- Generated by graphviz version 2.26.3 (20100126.1600)
 -->
<!-- Title: g Pages: 1 -->
<svg width="504pt" height="81pt"
 viewBox="0.00 0.00 504.00 80.99" xmlns="http://www.w3.org/2000/svg" xmlns:xlink="http://www.w3.org/1999/xlink">
<g id="graph1" class="graph" transform="scale(0.622991 0.622991) rotate(0) translate(4 126)">
<title>g</title>
<polygon fill="white" stroke="white" points="-4,5 -4,-126 806,-126 806,5 -4,5"/>
<!-- N1 -->
<g id="node1" class="node"><title>N1</title>
<polygon fill="#ffffff" stroke="#ffffff" stroke-width="1.5" points="385,-85 415,-85 427,-97 427,-109 415,-121 385,-121 373,-109 373,-97 385,-85"/>
<path fill="#ffffff" stroke="#ffffff" stroke-width="1.5" d="M415,-85C421,-85 427,-91 427,-97"/>
<path fill="#ffffff" stroke="#ffffff" stroke-width="1.5" d="M427,-109C427,-115 421,-121 415,-121"/>
<path fill="#ffffff" stroke="#ffffff" stroke-width="1.5" d="M385,-121C379,-121 373,-115 373,-109"/>
<path fill="#ffffff" stroke="#ffffff" stroke-width="1.5" d="M373,-97C373,-91 379,-85 385,-85"/>
<polyline fill="none" stroke="#2e3436" stroke-width="1.5" points="385,-85 415,-85 "/>
<path fill="none" stroke="#2e3436" stroke-width="1.5" d="M415,-85C421,-85 427,-91 427,-97"/>
<polyline fill="none" stroke="#2e3436" stroke-width="1.5" points="427,-97 427,-109 "/>
<path fill="none" stroke="#2e3436" stroke-width="1.5" d="M427,-109C427,-115 421,-121 415,-121"/>
<polyline fill="none" stroke="#2e3436" stroke-width="1.5" points="415,-121 385,-121 "/>
<path fill="none" stroke="#2e3436" stroke-width="1.5" d="M385,-121C379,-121 373,-115 373,-109"/>
<polyline fill="none" stroke="#2e3436" stroke-width="1.5" points="373,-109 373,-97 "/>
<path fill="none" stroke="#2e3436" stroke-width="1.5" d="M373,-97C373,-91 379,-85 385,-85"/>
<text text-anchor="middle" x="400" y="-109.8" font-family="FreeSans" font-size="8.00" fill="#1c2021">Node[1]</text>
<polyline fill="none" stroke="#2e3436" stroke-width="1.5" points="373,-103 427,-103 "/>
<text text-anchor="middle" x="400" y="-91.8" font-family="FreeSans" font-size="8.00" fill="#1c2021"> </text>
</g>
<!-- N2 -->
<g id="node3" class="node"><title>N2</title>
<polygon fill="#ffffff" stroke="#ffffff" stroke-width="1.5" points="12,-1 42,-1 54,-13 54,-25 42,-37 12,-37 0,-25 0,-13 12,-1"/>
<path fill="#ffffff" stroke="#ffffff" stroke-width="1.5" d="M42,-1C48,-1 54,-7 54,-13"/>
<path fill="#ffffff" stroke="#ffffff" stroke-width="1.5" d="M54,-25C54,-31 48,-37 42,-37"/>
<path fill="#ffffff" stroke="#ffffff" stroke-width="1.5" d="M12,-37C6,-37 0,-31 0,-25"/>
<path fill="#ffffff" stroke="#ffffff" stroke-width="1.5" d="M0,-13C0,-7 6,-1 12,-1"/>
<polyline fill="none" stroke="#2e3436" stroke-width="1.5" points="12,-1 42,-1 "/>
<path fill="none" stroke="#2e3436" stroke-width="1.5" d="M42,-1C48,-1 54,-7 54,-13"/>
<polyline fill="none" stroke="#2e3436" stroke-width="1.5" points="54,-13 54,-25 "/>
<path fill="none" stroke="#2e3436" stroke-width="1.5" d="M54,-25C54,-31 48,-37 42,-37"/>
<polyline fill="none" stroke="#2e3436" stroke-width="1.5" points="42,-37 12,-37 "/>
<path fill="none" stroke="#2e3436" stroke-width="1.5" d="M12,-37C6,-37 0,-31 0,-25"/>
<polyline fill="none" stroke="#2e3436" stroke-width="1.5" points="0,-25 0,-13 "/>
<path fill="none" stroke="#2e3436" stroke-width="1.5" d="M0,-13C0,-7 6,-1 12,-1"/>
<text text-anchor="middle" x="27" y="-25.8" font-family="FreeSans" font-size="8.00" fill="#1c2021">Node[2]</text>
<polyline fill="none" stroke="#2e3436" stroke-width="1.5" points="0,-19 54,-19 "/>
<text text-anchor="middle" x="27" y="-7.8" font-family="FreeSans" font-size="8.00" fill="#1c2021"> </text>
</g>
<!-- N1&#45;&gt;N2 -->
<g id="edge2" class="edge"><title>N1&#45;&gt;N2</title>
<path fill="none" stroke="#2e3436" stroke-width="2" d="M372.713,-100.073C315.19,-93.3827 177.748,-74.6451 68,-38 65.6932,-37.2297 63.3438,-36.3674 60.9961,-35.4466"/>
<polygon fill="#2e3436" stroke="#2e3436" points="54.0017,-32.5424 62.2226,-32.3016 57.6568,-33.5187 61.1201,-34.9568 60.9284,-35.4186 60.7366,-35.8804 57.2733,-34.4423 59.6341,-38.5356 54.0017,-32.5424 54.0017,-32.5424"/>
<text text-anchor="middle" x="170" y="-58.8" font-family="FreeSans" font-size="8.00" fill="#2e3436">X</text>
</g>
<!-- N3 -->
<g id="node5" class="node"><title>N3</title>
<polygon fill="#ffffff" stroke="#ffffff" stroke-width="1.5" points="95,-1 125,-1 137,-13 137,-25 125,-37 95,-37 83,-25 83,-13 95,-1"/>
<path fill="#ffffff" stroke="#ffffff" stroke-width="1.5" d="M125,-1C131,-1 137,-7 137,-13"/>
<path fill="#ffffff" stroke="#ffffff" stroke-width="1.5" d="M137,-25C137,-31 131,-37 125,-37"/>
<path fill="#ffffff" stroke="#ffffff" stroke-width="1.5" d="M95,-37C89,-37 83,-31 83,-25"/>
<path fill="#ffffff" stroke="#ffffff" stroke-width="1.5" d="M83,-13C83,-7 89,-1 95,-1"/>
<polyline fill="none" stroke="#2e3436" stroke-width="1.5" points="95,-1 125,-1 "/>
<path fill="none" stroke="#2e3436" stroke-width="1.5" d="M125,-1C131,-1 137,-7 137,-13"/>
<polyline fill="none" stroke="#2e3436" stroke-width="1.5" points="137,-13 137,-25 "/>
<path fill="none" stroke="#2e3436" stroke-width="1.5" d="M137,-25C137,-31 131,-37 125,-37"/>
<polyline fill="none" stroke="#2e3436" stroke-width="1.5" points="125,-37 95,-37 "/>
<path fill="none" stroke="#2e3436" stroke-width="1.5" d="M95,-37C89,-37 83,-31 83,-25"/>
<polyline fill="none" stroke="#2e3436" stroke-width="1.5" points="83,-25 83,-13 "/>
<path fill="none" stroke="#2e3436" stroke-width="1.5" d="M83,-13C83,-7 89,-1 95,-1"/>
<text text-anchor="middle" x="110" y="-25.8" font-family="FreeSans" font-size="8.00" fill="#1c2021">Node[3]</text>
<polyline fill="none" stroke="#2e3436" stroke-width="1.5" points="83,-19 137,-19 "/>
<text text-anchor="middle" x="110" y="-7.8" font-family="FreeSans" font-size="8.00" fill="#1c2021"> </text>
</g>
<!-- N1&#45;&gt;N3 -->
<g id="edge4" class="edge"><title>N1&#45;&gt;N3</title>
<path fill="none" stroke="#2e3436" stroke-width="2" d="M372.992,-97.6083C326.768,-88.0155 229.845,-66.3034 151,-38 148.711,-37.1783 146.375,-36.277 144.037,-35.3274"/>
<polygon fill="#2e3436" stroke="#2e3436" points="137.063,-32.3652 145.286,-32.1909 140.71,-33.371 144.162,-34.8371 143.966,-35.2973 143.771,-35.7575 140.319,-34.2914 142.647,-38.4037 137.063,-32.3652 137.063,-32.3652"/>
<text text-anchor="middle" x="242" y="-58.8" font-family="FreeSans" font-size="8.00" fill="#2e3436">X</text>
</g>
<!-- N4 -->
<g id="node7" class="node"><title>N4</title>
<polygon fill="#ffffff" stroke="#ffffff" stroke-width="1.5" points="178,-1 208,-1 220,-13 220,-25 208,-37 178,-37 166,-25 166,-13 178,-1"/>
<path fill="#ffffff" stroke="#ffffff" stroke-width="1.5" d="M208,-1C214,-1 220,-7 220,-13"/>
<path fill="#ffffff" stroke="#ffffff" stroke-width="1.5" d="M220,-25C220,-31 214,-37 208,-37"/>
<path fill="#ffffff" stroke="#ffffff" stroke-width="1.5" d="M178,-37C172,-37 166,-31 166,-25"/>
<path fill="#ffffff" stroke="#ffffff" stroke-width="1.5" d="M166,-13C166,-7 172,-1 178,-1"/>
<polyline fill="none" stroke="#2e3436" stroke-width="1.5" points="178,-1 208,-1 "/>
<path fill="none" stroke="#2e3436" stroke-width="1.5" d="M208,-1C214,-1 220,-7 220,-13"/>
<polyline fill="none" stroke="#2e3436" stroke-width="1.5" points="220,-13 220,-25 "/>
<path fill="none" stroke="#2e3436" stroke-width="1.5" d="M220,-25C220,-31 214,-37 208,-37"/>
<polyline fill="none" stroke="#2e3436" stroke-width="1.5" points="208,-37 178,-37 "/>
<path fill="none" stroke="#2e3436" stroke-width="1.5" d="M178,-37C172,-37 166,-31 166,-25"/>
<polyline fill="none" stroke="#2e3436" stroke-width="1.5" points="166,-25 166,-13 "/>
<path fill="none" stroke="#2e3436" stroke-width="1.5" d="M166,-13C166,-7 172,-1 178,-1"/>
<text text-anchor="middle" x="193" y="-25.8" font-family="FreeSans" font-size="8.00" fill="#1c2021">Node[4]</text>
<polyline fill="none" stroke="#2e3436" stroke-width="1.5" points="166,-19 220,-19 "/>
<text text-anchor="middle" x="193" y="-7.8" font-family="FreeSans" font-size="8.00" fill="#1c2021"> </text>
</g>
<!-- N1&#45;&gt;N4 -->
<g id="edge6" class="edge"><title>N1&#45;&gt;N4</title>
<path fill="none" stroke="#2e3436" stroke-width="2" d="M372.768,-92.9177C339.713,-80.5465 282.388,-58.6628 234,-38 231.763,-37.0449 229.467,-36.0425 227.159,-35.0183"/>
<polygon fill="#2e3436" stroke="#2e3436" points="220.244,-31.9055 228.468,-31.9065 223.868,-32.9889 227.288,-34.5282 227.083,-34.9841 226.877,-35.44 223.458,-33.9008 225.697,-38.0617 220.244,-31.9055 220.244,-31.9055"/>
<text text-anchor="middle" x="305" y="-58.8" font-family="FreeSans" font-size="8.00" fill="#2e3436">X</text>
</g>
<!-- N5 -->
<g id="node9" class="node"><title>N5</title>
<polygon fill="#ffffff" stroke="#ffffff" stroke-width="1.5" points="261,-1 291,-1 303,-13 303,-25 291,-37 261,-37 249,-25 249,-13 261,-1"/>
<path fill="#ffffff" stroke="#ffffff" stroke-width="1.5" d="M291,-1C297,-1 303,-7 303,-13"/>
<path fill="#ffffff" stroke="#ffffff" stroke-width="1.5" d="M303,-25C303,-31 297,-37 291,-37"/>
<path fill="#ffffff" stroke="#ffffff" stroke-width="1.5" d="M261,-37C255,-37 249,-31 249,-25"/>
<path fill="#ffffff" stroke="#ffffff" stroke-width="1.5" d="M249,-13C249,-7 255,-1 261,-1"/>
<polyline fill="none" stroke="#2e3436" stroke-width="1.5" points="261,-1 291,-1 "/>
<path fill="none" stroke="#2e3436" stroke-width="1.5" d="M291,-1C297,-1 303,-7 303,-13"/>
<polyline fill="none" stroke="#2e3436" stroke-width="1.5" points="303,-13 303,-25 "/>
<path fill="none" stroke="#2e3436" stroke-width="1.5" d="M303,-25C303,-31 297,-37 291,-37"/>
<polyline fill="none" stroke="#2e3436" stroke-width="1.5" points="291,-37 261,-37 "/>
<path fill="none" stroke="#2e3436" stroke-width="1.5" d="M261,-37C255,-37 249,-31 249,-25"/>
<polyline fill="none" stroke="#2e3436" stroke-width="1.5" points="249,-25 249,-13 "/>
<path fill="none" stroke="#2e3436" stroke-width="1.5" d="M249,-13C249,-7 255,-1 261,-1"/>
<text text-anchor="middle" x="276" y="-25.8" font-family="FreeSans" font-size="8.00" fill="#1c2021">Node[5]</text>
<polyline fill="none" stroke="#2e3436" stroke-width="1.5" points="249,-19 303,-19 "/>
<text text-anchor="middle" x="276" y="-7.8" font-family="FreeSans" font-size="8.00" fill="#1c2021"> </text>
</g>
<!-- N1&#45;&gt;N5 -->
<g id="edge8" class="edge"><title>N1&#45;&gt;N5</title>
<path fill="none" stroke="#2e3436" stroke-width="2" d="M373.399,-84.9799C354.649,-72.2781 329.403,-55.1759 309.312,-41.5662"/>
<polygon fill="#2e3436" stroke="#2e3436" points="302.985,-37.2801 311.087,-38.6923 306.37,-38.9694 309.475,-41.0726 309.194,-41.4866 308.914,-41.9005 305.809,-39.7973 307.302,-44.2808 302.985,-37.2801 302.985,-37.2801"/>
<text text-anchor="middle" x="345" y="-58.8" font-family="FreeSans" font-size="8.00" fill="#2e3436">X</text>
</g>
<!-- N6 -->
<g id="node11" class="node"><title>N6</title>
<polygon fill="#ffffff" stroke="#ffffff" stroke-width="1.5" points="344,-1 374,-1 386,-13 386,-25 374,-37 344,-37 332,-25 332,-13 344,-1"/>
<path fill="#ffffff" stroke="#ffffff" stroke-width="1.5" d="M374,-1C380,-1 386,-7 386,-13"/>
<path fill="#ffffff" stroke="#ffffff" stroke-width="1.5" d="M386,-25C386,-31 380,-37 374,-37"/>
<path fill="#ffffff" stroke="#ffffff" stroke-width="1.5" d="M344,-37C338,-37 332,-31 332,-25"/>
<path fill="#ffffff" stroke="#ffffff" stroke-width="1.5" d="M332,-13C332,-7 338,-1 344,-1"/>
<polyline fill="none" stroke="#2e3436" stroke-width="1.5" points="344,-1 374,-1 "/>
<path fill="none" stroke="#2e3436" stroke-width="1.5" d="M374,-1C380,-1 386,-7 386,-13"/>
<polyline fill="none" stroke="#2e3436" stroke-width="1.5" points="386,-13 386,-25 "/>
<path fill="none" stroke="#2e3436" stroke-width="1.5" d="M386,-25C386,-31 380,-37 374,-37"/>
<polyline fill="none" stroke="#2e3436" stroke-width="1.5" points="374,-37 344,-37 "/>
<path fill="none" stroke="#2e3436" stroke-width="1.5" d="M344,-37C338,-37 332,-31 332,-25"/>
<polyline fill="none" stroke="#2e3436" stroke-width="1.5" points="332,-25 332,-13 "/>
<path fill="none" stroke="#2e3436" stroke-width="1.5" d="M332,-13C332,-7 338,-1 344,-1"/>
<text text-anchor="middle" x="359" y="-25.8" font-family="FreeSans" font-size="8.00" fill="#1c2021">Node[6]</text>
<polyline fill="none" stroke="#2e3436" stroke-width="1.5" points="332,-19 386,-19 "/>
<text text-anchor="middle" x="359" y="-7.8" font-family="FreeSans" font-size="8.00" fill="#1c2021"> </text>
</g>
<!-- N1&#45;&gt;N6 -->
<g id="edge10" class="edge"><title>N1&#45;&gt;N6</title>
<path fill="none" stroke="#2e3436" stroke-width="2" d="M391.104,-84.7733C385.301,-72.8851 377.649,-57.2081 371.271,-44.1413"/>
<polygon fill="#2e3436" stroke="#2e3436" points="367.879,-37.1912 374.202,-42.4508 369.973,-40.3419 371.618,-43.7119 371.169,-43.9312 370.72,-44.1505 369.075,-40.7805 368.136,-45.4116 367.879,-37.1912 367.879,-37.1912"/>
<text text-anchor="middle" x="384" y="-58.8" font-family="FreeSans" font-size="8.00" fill="#2e3436">X</text>
</g>
<!-- N7 -->
<g id="node13" class="node"><title>N7</title>
<polygon fill="#ffffff" stroke="#ffffff" stroke-width="1.5" points="427,-1 457,-1 469,-13 469,-25 457,-37 427,-37 415,-25 415,-13 427,-1"/>
<path fill="#ffffff" stroke="#ffffff" stroke-width="1.5" d="M457,-1C463,-1 469,-7 469,-13"/>
<path fill="#ffffff" stroke="#ffffff" stroke-width="1.5" d="M469,-25C469,-31 463,-37 457,-37"/>
<path fill="#ffffff" stroke="#ffffff" stroke-width="1.5" d="M427,-37C421,-37 415,-31 415,-25"/>
<path fill="#ffffff" stroke="#ffffff" stroke-width="1.5" d="M415,-13C415,-7 421,-1 427,-1"/>
<polyline fill="none" stroke="#2e3436" stroke-width="1.5" points="427,-1 457,-1 "/>
<path fill="none" stroke="#2e3436" stroke-width="1.5" d="M457,-1C463,-1 469,-7 469,-13"/>
<polyline fill="none" stroke="#2e3436" stroke-width="1.5" points="469,-13 469,-25 "/>
<path fill="none" stroke="#2e3436" stroke-width="1.5" d="M469,-25C469,-31 463,-37 457,-37"/>
<polyline fill="none" stroke="#2e3436" stroke-width="1.5" points="457,-37 427,-37 "/>
<path fill="none" stroke="#2e3436" stroke-width="1.5" d="M427,-37C421,-37 415,-31 415,-25"/>
<polyline fill="none" stroke="#2e3436" stroke-width="1.5" points="415,-25 415,-13 "/>
<path fill="none" stroke="#2e3436" stroke-width="1.5" d="M415,-13C415,-7 421,-1 427,-1"/>
<text text-anchor="middle" x="442" y="-25.8" font-family="FreeSans" font-size="8.00" fill="#1c2021">Node[7]</text>
<polyline fill="none" stroke="#2e3436" stroke-width="1.5" points="415,-19 469,-19 "/>
<text text-anchor="middle" x="442" y="-7.8" font-family="FreeSans" font-size="8.00" fill="#1c2021"> </text>
</g>
<!-- N1&#45;&gt;N7 -->
<g id="edge12" class="edge"><title>N1&#45;&gt;N7</title>
<path fill="none" stroke="#2e3436" stroke-width="2" d="M409.113,-84.7733C415.057,-72.8851 422.896,-57.2081 429.429,-44.1413"/>
<polygon fill="#2e3436" stroke="#2e3436" points="432.904,-37.1912 432.569,-45.4088 431.675,-40.7689 429.997,-44.123 429.55,-43.8994 429.103,-43.6758 430.78,-40.3217 426.532,-42.39 432.904,-37.1912 432.904,-37.1912"/>
<text text-anchor="middle" x="425" y="-58.8" font-family="FreeSans" font-size="8.00" fill="#2e3436">X</text>
</g>
<!-- N8 -->
<g id="node15" class="node"><title>N8</title>
<polygon fill="#ffffff" stroke="#ffffff" stroke-width="1.5" points="510,-1 540,-1 552,-13 552,-25 540,-37 510,-37 498,-25 498,-13 510,-1"/>
<path fill="#ffffff" stroke="#ffffff" stroke-width="1.5" d="M540,-1C546,-1 552,-7 552,-13"/>
<path fill="#ffffff" stroke="#ffffff" stroke-width="1.5" d="M552,-25C552,-31 546,-37 540,-37"/>
<path fill="#ffffff" stroke="#ffffff" stroke-width="1.5" d="M510,-37C504,-37 498,-31 498,-25"/>
<path fill="#ffffff" stroke="#ffffff" stroke-width="1.5" d="M498,-13C498,-7 504,-1 510,-1"/>
<polyline fill="none" stroke="#2e3436" stroke-width="1.5" points="510,-1 540,-1 "/>
<path fill="none" stroke="#2e3436" stroke-width="1.5" d="M540,-1C546,-1 552,-7 552,-13"/>
<polyline fill="none" stroke="#2e3436" stroke-width="1.5" points="552,-13 552,-25 "/>
<path fill="none" stroke="#2e3436" stroke-width="1.5" d="M552,-25C552,-31 546,-37 540,-37"/>
<polyline fill="none" stroke="#2e3436" stroke-width="1.5" points="540,-37 510,-37 "/>
<path fill="none" stroke="#2e3436" stroke-width="1.5" d="M510,-37C504,-37 498,-31 498,-25"/>
<polyline fill="none" stroke="#2e3436" stroke-width="1.5" points="498,-25 498,-13 "/>
<path fill="none" stroke="#2e3436" stroke-width="1.5" d="M498,-13C498,-7 504,-1 510,-1"/>
<text text-anchor="middle" x="525" y="-25.8" font-family="FreeSans" font-size="8.00" fill="#1c2021">Node[8]</text>
<polyline fill="none" stroke="#2e3436" stroke-width="1.5" points="498,-19 552,-19 "/>
<text text-anchor="middle" x="525" y="-7.8" font-family="FreeSans" font-size="8.00" fill="#1c2021"> </text>
</g>
<!-- N1&#45;&gt;N8 -->
<g id="edge14" class="edge"><title>N1&#45;&gt;N8</title>
<path fill="none" stroke="#2e3436" stroke-width="2" d="M426.816,-84.9799C445.717,-72.2781 471.167,-55.1759 491.419,-41.5662"/>
<polygon fill="#2e3436" stroke="#2e3436" points="497.797,-37.2801 493.455,-44.2647 494.964,-39.7868 491.851,-41.8784 491.572,-41.4634 491.293,-41.0484 494.406,-38.9568 489.69,-38.6621 497.797,-37.2801 497.797,-37.2801"/>
<text text-anchor="middle" x="469" y="-58.8" font-family="FreeSans" font-size="8.00" fill="#2e3436">X</text>
</g>
<!-- N9 -->
<g id="node17" class="node"><title>N9</title>
<polygon fill="#ffffff" stroke="#ffffff" stroke-width="1.5" points="593,-1 623,-1 635,-13 635,-25 623,-37 593,-37 581,-25 581,-13 593,-1"/>
<path fill="#ffffff" stroke="#ffffff" stroke-width="1.5" d="M623,-1C629,-1 635,-7 635,-13"/>
<path fill="#ffffff" stroke="#ffffff" stroke-width="1.5" d="M635,-25C635,-31 629,-37 623,-37"/>
<path fill="#ffffff" stroke="#ffffff" stroke-width="1.5" d="M593,-37C587,-37 581,-31 581,-25"/>
<path fill="#ffffff" stroke="#ffffff" stroke-width="1.5" d="M581,-13C581,-7 587,-1 593,-1"/>
<polyline fill="none" stroke="#2e3436" stroke-width="1.5" points="593,-1 623,-1 "/>
<path fill="none" stroke="#2e3436" stroke-width="1.5" d="M623,-1C629,-1 635,-7 635,-13"/>
<polyline fill="none" stroke="#2e3436" stroke-width="1.5" points="635,-13 635,-25 "/>
<path fill="none" stroke="#2e3436" stroke-width="1.5" d="M635,-25C635,-31 629,-37 623,-37"/>
<polyline fill="none" stroke="#2e3436" stroke-width="1.5" points="623,-37 593,-37 "/>
<path fill="none" stroke="#2e3436" stroke-width="1.5" d="M593,-37C587,-37 581,-31 581,-25"/>
<polyline fill="none" stroke="#2e3436" stroke-width="1.5" points="581,-25 581,-13 "/>
<path fill="none" stroke="#2e3436" stroke-width="1.5" d="M581,-13C581,-7 587,-1 593,-1"/>
<text text-anchor="middle" x="608" y="-25.8" font-family="FreeSans" font-size="8.00" fill="#1c2021">Node[9]</text>
<polyline fill="none" stroke="#2e3436" stroke-width="1.5" points="581,-19 635,-19 "/>
<text text-anchor="middle" x="608" y="-7.8" font-family="FreeSans" font-size="8.00" fill="#1c2021"> </text>
</g>
<!-- N1&#45;&gt;N9 -->
<g id="edge16" class="edge"><title>N1&#45;&gt;N9</title>
<path fill="none" stroke="#2e3436" stroke-width="2" d="M427.109,-93.0462C460.322,-80.7144 518.195,-58.7823 567,-38 569.238,-37.0472 571.534,-36.0465 573.844,-35.0236"/>
<polygon fill="#2e3436" stroke="#2e3436" points="580.76,-31.9134 575.304,-38.0675 577.545,-33.9074 574.125,-35.4454 573.92,-34.9894 573.714,-34.5334 577.135,-32.9954 572.535,-31.9113 580.76,-31.9134 580.76,-31.9134"/>
<text text-anchor="middle" x="524" y="-58.8" font-family="FreeSans" font-size="8.00" fill="#2e3436">X</text>
</g>
<!-- N10 -->
<g id="node19" class="node"><title>N10</title>
<polygon fill="#ffffff" stroke="#ffffff" stroke-width="1.5" points="675.5,-1 706.5,-1 718.5,-13 718.5,-25 706.5,-37 675.5,-37 663.5,-25 663.5,-13 675.5,-1"/>
<path fill="#ffffff" stroke="#ffffff" stroke-width="1.5" d="M706.5,-1C712.5,-1 718.5,-7 718.5,-13"/>
<path fill="#ffffff" stroke="#ffffff" stroke-width="1.5" d="M718.5,-25C718.5,-31 712.5,-37 706.5,-37"/>
<path fill="#ffffff" stroke="#ffffff" stroke-width="1.5" d="M675.5,-37C669.5,-37 663.5,-31 663.5,-25"/>
<path fill="#ffffff" stroke="#ffffff" stroke-width="1.5" d="M663.5,-13C663.5,-7 669.5,-1 675.5,-1"/>
<polyline fill="none" stroke="#2e3436" stroke-width="1.5" points="675.5,-1 706.5,-1 "/>
<path fill="none" stroke="#2e3436" stroke-width="1.5" d="M706.5,-1C712.5,-1 718.5,-7 718.5,-13"/>
<polyline fill="none" stroke="#2e3436" stroke-width="1.5" points="718.5,-13 718.5,-25 "/>
<path fill="none" stroke="#2e3436" stroke-width="1.5" d="M718.5,-25C718.5,-31 712.5,-37 706.5,-37"/>
<polyline fill="none" stroke="#2e3436" stroke-width="1.5" points="706.5,-37 675.5,-37 "/>
<path fill="none" stroke="#2e3436" stroke-width="1.5" d="M675.5,-37C669.5,-37 663.5,-31 663.5,-25"/>
<polyline fill="none" stroke="#2e3436" stroke-width="1.5" points="663.5,-25 663.5,-13 "/>
<path fill="none" stroke="#2e3436" stroke-width="1.5" d="M663.5,-13C663.5,-7 669.5,-1 675.5,-1"/>
<text text-anchor="middle" x="691" y="-25.8" font-family="FreeSans" font-size="8.00" fill="#1c2021">Node[10]</text>
<polyline fill="none" stroke="#2e3436" stroke-width="1.5" points="663.5,-19 718.5,-19 "/>
<text text-anchor="middle" x="691" y="-7.8" font-family="FreeSans" font-size="8.00" fill="#1c2021"> </text>
</g>
<!-- N1&#45;&gt;N10 -->
<g id="edge18" class="edge"><title>N1&#45;&gt;N10</title>
<path fill="none" stroke="#2e3436" stroke-width="2" d="M427.117,-97.6229C473.529,-88.0517 570.845,-66.3711 650,-38 652.077,-37.2555 654.193,-36.4453 656.313,-35.5928"/>
<polygon fill="#2e3436" stroke="#2e3436" points="663.493,-32.5652 657.894,-38.5891 660.232,-34.4829 656.777,-35.94 656.582,-35.4793 656.388,-35.0186 659.844,-33.5615 655.271,-32.3694 663.493,-32.5652 663.493,-32.5652"/>
<text text-anchor="middle" x="592" y="-58.8" font-family="FreeSans" font-size="8.00" fill="#2e3436">X</text>
</g>
<!-- N11 -->
<g id="node21" class="node"><title>N11</title>
<polygon fill="#ffffff" stroke="#ffffff" stroke-width="1.5" points="758.5,-1 789.5,-1 801.5,-13 801.5,-25 789.5,-37 758.5,-37 746.5,-25 746.5,-13 758.5,-1"/>
<path fill="#ffffff" stroke="#ffffff" stroke-width="1.5" d="M789.5,-1C795.5,-1 801.5,-7 801.5,-13"/>
<path fill="#ffffff" stroke="#ffffff" stroke-width="1.5" d="M801.5,-25C801.5,-31 795.5,-37 789.5,-37"/>
<path fill="#ffffff" stroke="#ffffff" stroke-width="1.5" d="M758.5,-37C752.5,-37 746.5,-31 746.5,-25"/>
<path fill="#ffffff" stroke="#ffffff" stroke-width="1.5" d="M746.5,-13C746.5,-7 752.5,-1 758.5,-1"/>
<polyline fill="none" stroke="#2e3436" stroke-width="1.5" points="758.5,-1 789.5,-1 "/>
<path fill="none" stroke="#2e3436" stroke-width="1.5" d="M789.5,-1C795.5,-1 801.5,-7 801.5,-13"/>
<polyline fill="none" stroke="#2e3436" stroke-width="1.5" points="801.5,-13 801.5,-25 "/>
<path fill="none" stroke="#2e3436" stroke-width="1.5" d="M801.5,-25C801.5,-31 795.5,-37 789.5,-37"/>
<polyline fill="none" stroke="#2e3436" stroke-width="1.5" points="789.5,-37 758.5,-37 "/>
<path fill="none" stroke="#2e3436" stroke-width="1.5" d="M758.5,-37C752.5,-37 746.5,-31 746.5,-25"/>
<polyline fill="none" stroke="#2e3436" stroke-width="1.5" points="746.5,-25 746.5,-13 "/>
<path fill="none" stroke="#2e3436" stroke-width="1.5" d="M746.5,-13C746.5,-7 752.5,-1 758.5,-1"/>
<text text-anchor="middle" x="774" y="-25.8" font-family="FreeSans" font-size="8.00" fill="#1c2021">Node[11]</text>
<polyline fill="none" stroke="#2e3436" stroke-width="1.5" points="746.5,-19 801.5,-19 "/>
<text text-anchor="middle" x="774" y="-7.8" font-family="FreeSans" font-size="8.00" fill="#1c2021"> </text>
</g>
<!-- N1&#45;&gt;N11 -->
<g id="edge20" class="edge"><title>N1&#45;&gt;N11</title>
<path fill="none" stroke="#2e3436" stroke-width="2" d="M427.371,-100.09C485.071,-93.4317 622.934,-74.7514 733,-38 735.023,-37.3245 737.079,-36.5781 739.138,-35.7836"/>
<polygon fill="#2e3436" stroke="#2e3436" points="746.106,-32.9298 740.444,-38.8957 742.825,-34.8138 739.355,-36.2352 739.165,-35.7725 738.976,-35.3098 742.446,-33.8885 737.886,-32.6493 746.106,-32.9298 746.106,-32.9298"/>
<text text-anchor="middle" x="673" y="-58.8" font-family="FreeSans" font-size="8.00" fill="#2e3436">X</text>
</g>
</g>
</svg>
