<?xml version="1.0" encoding="UTF-8" standalone="no"?>
<!DOCTYPE svg PUBLIC "-//W3C//DTD SVG 1.1//EN"
 "http://www.w3.org/Graphics/SVG/1.1/DTD/svg11.dtd">
<!-- Generated by graphviz version 2.26.3 (20100126.1600)
 -->
<!-- Title: g Pages: 1 -->
<svg width="465pt" height="298pt"
 viewBox="0.00 0.00 465.00 298.00" xmlns="http://www.w3.org/2000/svg" xmlns:xlink="http://www.w3.org/1999/xlink">
<g id="graph1" class="graph" transform="scale(1 1) rotate(0) translate(4 294)">
<title>g</title>
<polygon fill="white" stroke="white" points="-4,5 -4,-294 462,-294 462,5 -4,5"/>
<!-- N1 -->
<g id="node1" class="node"><title>N1</title>
<polygon fill="#ffffff" stroke="#ffffff" stroke-width="1.5" points="12,-169 64,-169 76,-181 76,-193 64,-205 12,-205 0,-193 0,-181 12,-169"/>
<path fill="#ffffff" stroke="#ffffff" stroke-width="1.5" d="M64,-169C70,-169 76,-175 76,-181"/>
<path fill="#ffffff" stroke="#ffffff" stroke-width="1.5" d="M76,-193C76,-199 70,-205 64,-205"/>
<path fill="#ffffff" stroke="#ffffff" stroke-width="1.5" d="M12,-205C6,-205 0,-199 0,-193"/>
<path fill="#ffffff" stroke="#ffffff" stroke-width="1.5" d="M0,-181C0,-175 6,-169 12,-169"/>
<polyline fill="none" stroke="#2e3436" stroke-width="1.5" points="12,-169 64,-169 "/>
<path fill="none" stroke="#2e3436" stroke-width="1.5" d="M64,-169C70,-169 76,-175 76,-181"/>
<polyline fill="none" stroke="#2e3436" stroke-width="1.5" points="76,-181 76,-193 "/>
<path fill="none" stroke="#2e3436" stroke-width="1.5" d="M76,-193C76,-199 70,-205 64,-205"/>
<polyline fill="none" stroke="#2e3436" stroke-width="1.5" points="64,-205 12,-205 "/>
<path fill="none" stroke="#2e3436" stroke-width="1.5" d="M12,-205C6,-205 0,-199 0,-193"/>
<polyline fill="none" stroke="#2e3436" stroke-width="1.5" points="0,-193 0,-181 "/>
<path fill="none" stroke="#2e3436" stroke-width="1.5" d="M0,-181C0,-175 6,-169 12,-169"/>
<text text-anchor="middle" x="38" y="-193.8" font-family="FreeSans" font-size="8.00" fill="#1c2021">Node[1]</text>
<polyline fill="none" stroke="#2e3436" stroke-width="1.5" points="0,-187 76,-187 "/>
<text text-anchor="start" x="8" y="-175.8" font-family="FreeSans" font-size="8.00" fill="#1c2021">name = &#39;cats&#39;</text>
</g>
<!-- N2 -->
<g id="node2" class="node"><title>N2</title>
<polygon fill="#ffffff" stroke="#ffffff" stroke-width="1.5" points="241,-85 303,-85 315,-97 315,-109 303,-121 241,-121 229,-109 229,-97 241,-85"/>
<path fill="#ffffff" stroke="#ffffff" stroke-width="1.5" d="M303,-85C309,-85 315,-91 315,-97"/>
<path fill="#ffffff" stroke="#ffffff" stroke-width="1.5" d="M315,-109C315,-115 309,-121 303,-121"/>
<path fill="#ffffff" stroke="#ffffff" stroke-width="1.5" d="M241,-121C235,-121 229,-115 229,-109"/>
<path fill="#ffffff" stroke="#ffffff" stroke-width="1.5" d="M229,-97C229,-91 235,-85 241,-85"/>
<polyline fill="none" stroke="#2e3436" stroke-width="1.5" points="241,-85 303,-85 "/>
<path fill="none" stroke="#2e3436" stroke-width="1.5" d="M303,-85C309,-85 315,-91 315,-97"/>
<polyline fill="none" stroke="#2e3436" stroke-width="1.5" points="315,-97 315,-109 "/>
<path fill="none" stroke="#2e3436" stroke-width="1.5" d="M315,-109C315,-115 309,-121 303,-121"/>
<polyline fill="none" stroke="#2e3436" stroke-width="1.5" points="303,-121 241,-121 "/>
<path fill="none" stroke="#2e3436" stroke-width="1.5" d="M241,-121C235,-121 229,-115 229,-109"/>
<polyline fill="none" stroke="#2e3436" stroke-width="1.5" points="229,-109 229,-97 "/>
<path fill="none" stroke="#2e3436" stroke-width="1.5" d="M229,-97C229,-91 235,-85 241,-85"/>
<text text-anchor="middle" x="272" y="-109.8" font-family="FreeSans" font-size="8.00" fill="#1c2021">Node[2]</text>
<polyline fill="none" stroke="#2e3436" stroke-width="1.5" points="229,-103 315,-103 "/>
<text text-anchor="start" x="237" y="-91.8" font-family="FreeSans" font-size="8.00" fill="#1c2021">name = &#39;nature&#39;</text>
</g>
<!-- N3 -->
<g id="node3" class="node"><title>N3</title>
<polygon fill="#ffffff" stroke="#ffffff" stroke-width="1.5" points="117,-169 167,-169 179,-181 179,-193 167,-205 117,-205 105,-193 105,-181 117,-169"/>
<path fill="#ffffff" stroke="#ffffff" stroke-width="1.5" d="M167,-169C173,-169 179,-175 179,-181"/>
<path fill="#ffffff" stroke="#ffffff" stroke-width="1.5" d="M179,-193C179,-199 173,-205 167,-205"/>
<path fill="#ffffff" stroke="#ffffff" stroke-width="1.5" d="M117,-205C111,-205 105,-199 105,-193"/>
<path fill="#ffffff" stroke="#ffffff" stroke-width="1.5" d="M105,-181C105,-175 111,-169 117,-169"/>
<polyline fill="none" stroke="#2e3436" stroke-width="1.5" points="117,-169 167,-169 "/>
<path fill="none" stroke="#2e3436" stroke-width="1.5" d="M167,-169C173,-169 179,-175 179,-181"/>
<polyline fill="none" stroke="#2e3436" stroke-width="1.5" points="179,-181 179,-193 "/>
<path fill="none" stroke="#2e3436" stroke-width="1.5" d="M179,-193C179,-199 173,-205 167,-205"/>
<polyline fill="none" stroke="#2e3436" stroke-width="1.5" points="167,-205 117,-205 "/>
<path fill="none" stroke="#2e3436" stroke-width="1.5" d="M117,-205C111,-205 105,-199 105,-193"/>
<polyline fill="none" stroke="#2e3436" stroke-width="1.5" points="105,-193 105,-181 "/>
<path fill="none" stroke="#2e3436" stroke-width="1.5" d="M105,-181C105,-175 111,-169 117,-169"/>
<text text-anchor="middle" x="142" y="-193.8" font-family="FreeSans" font-size="8.00" fill="#1c2021">Node[3]</text>
<polyline fill="none" stroke="#2e3436" stroke-width="1.5" points="105,-187 179,-187 "/>
<text text-anchor="start" x="113" y="-175.8" font-family="FreeSans" font-size="8.00" fill="#1c2021">name = &#39;Ben&#39;</text>
</g>
<!-- N4 -->
<g id="node4" class="node"><title>N4</title>
<polygon fill="#ffffff" stroke="#ffffff" stroke-width="1.5" points="239,-253 293,-253 305,-265 305,-277 293,-289 239,-289 227,-277 227,-265 239,-253"/>
<path fill="#ffffff" stroke="#ffffff" stroke-width="1.5" d="M293,-253C299,-253 305,-259 305,-265"/>
<path fill="#ffffff" stroke="#ffffff" stroke-width="1.5" d="M305,-277C305,-283 299,-289 293,-289"/>
<path fill="#ffffff" stroke="#ffffff" stroke-width="1.5" d="M239,-289C233,-289 227,-283 227,-277"/>
<path fill="#ffffff" stroke="#ffffff" stroke-width="1.5" d="M227,-265C227,-259 233,-253 239,-253"/>
<polyline fill="none" stroke="#2e3436" stroke-width="1.5" points="239,-253 293,-253 "/>
<path fill="none" stroke="#2e3436" stroke-width="1.5" d="M293,-253C299,-253 305,-259 305,-265"/>
<polyline fill="none" stroke="#2e3436" stroke-width="1.5" points="305,-265 305,-277 "/>
<path fill="none" stroke="#2e3436" stroke-width="1.5" d="M305,-277C305,-283 299,-289 293,-289"/>
<polyline fill="none" stroke="#2e3436" stroke-width="1.5" points="293,-289 239,-289 "/>
<path fill="none" stroke="#2e3436" stroke-width="1.5" d="M239,-289C233,-289 227,-283 227,-277"/>
<polyline fill="none" stroke="#2e3436" stroke-width="1.5" points="227,-277 227,-265 "/>
<path fill="none" stroke="#2e3436" stroke-width="1.5" d="M227,-265C227,-259 233,-253 239,-253"/>
<text text-anchor="middle" x="266" y="-277.8" font-family="FreeSans" font-size="8.00" fill="#1c2021">Node[4]</text>
<polyline fill="none" stroke="#2e3436" stroke-width="1.5" points="227,-271 305,-271 "/>
<text text-anchor="start" x="235" y="-259.8" font-family="FreeSans" font-size="8.00" fill="#1c2021">name = &#39;Sara&#39;</text>
</g>
<!-- N4&#45;&gt;N1 -->
<g id="edge10" class="edge"><title>N4&#45;&gt;N1</title>
<path fill="none" stroke="#4e9a06" stroke-width="2" d="M226.757,-261.687C200.667,-255.045 165.842,-245.309 136,-234 116.84,-226.739 96.3024,-217.182 79.0029,-208.583"/>
<polygon fill="#4e9a06" stroke="#4e9a06" points="72.2957,-205.216 80.5128,-205.564 75.8716,-206.452 79.2232,-208.134 78.9989,-208.581 78.7746,-209.028 75.423,-207.345 77.485,-211.597 72.2957,-205.216 72.2957,-205.216"/>
<text text-anchor="middle" x="148" y="-226.8" font-family="FreeSans" font-size="8.00" fill="#4e9a06">LIKES</text>
</g>
<!-- N4&#45;&gt;N3 -->
<g id="edge4" class="edge"><title>N4&#45;&gt;N3</title>
<path fill="none" stroke="#2e3436" stroke-width="2" d="M226.859,-259.496C210.706,-253.541 192.429,-245.143 178,-234 170.119,-227.914 163.048,-219.704 157.302,-211.848"/>
<polygon fill="#2e3436" stroke="#2e3436" points="152.798,-205.388 159.855,-209.61 155.352,-208.178 157.497,-211.255 157.087,-211.54 156.677,-211.826 154.532,-208.75 154.318,-213.471 152.798,-205.388 152.798,-205.388"/>
<text text-anchor="middle" x="198" y="-226.8" font-family="FreeSans" font-size="8.00" fill="#2e3436">FOLLOWS</text>
</g>
<!-- N8 -->
<g id="node6" class="node"><title>N8</title>
<polygon fill="#ffffff" stroke="#ffffff" stroke-width="1.5" points="219.5,-169 266.5,-169 278.5,-181 278.5,-193 266.5,-205 219.5,-205 207.5,-193 207.5,-181 219.5,-169"/>
<path fill="#ffffff" stroke="#ffffff" stroke-width="1.5" d="M266.5,-169C272.5,-169 278.5,-175 278.5,-181"/>
<path fill="#ffffff" stroke="#ffffff" stroke-width="1.5" d="M278.5,-193C278.5,-199 272.5,-205 266.5,-205"/>
<path fill="#ffffff" stroke="#ffffff" stroke-width="1.5" d="M219.5,-205C213.5,-205 207.5,-199 207.5,-193"/>
<path fill="#ffffff" stroke="#ffffff" stroke-width="1.5" d="M207.5,-181C207.5,-175 213.5,-169 219.5,-169"/>
<polyline fill="none" stroke="#2e3436" stroke-width="1.5" points="219.5,-169 266.5,-169 "/>
<path fill="none" stroke="#2e3436" stroke-width="1.5" d="M266.5,-169C272.5,-169 278.5,-175 278.5,-181"/>
<polyline fill="none" stroke="#2e3436" stroke-width="1.5" points="278.5,-181 278.5,-193 "/>
<path fill="none" stroke="#2e3436" stroke-width="1.5" d="M278.5,-193C278.5,-199 272.5,-205 266.5,-205"/>
<polyline fill="none" stroke="#2e3436" stroke-width="1.5" points="266.5,-205 219.5,-205 "/>
<path fill="none" stroke="#2e3436" stroke-width="1.5" d="M219.5,-205C213.5,-205 207.5,-199 207.5,-193"/>
<polyline fill="none" stroke="#2e3436" stroke-width="1.5" points="207.5,-193 207.5,-181 "/>
<path fill="none" stroke="#2e3436" stroke-width="1.5" d="M207.5,-181C207.5,-175 213.5,-169 219.5,-169"/>
<text text-anchor="middle" x="243" y="-193.8" font-family="FreeSans" font-size="8.00" fill="#1c2021">Node[8]</text>
<polyline fill="none" stroke="#2e3436" stroke-width="1.5" points="207.5,-187 278.5,-187 "/>
<text text-anchor="start" x="215.5" y="-175.8" font-family="FreeSans" font-size="8.00" fill="#1c2021">name = &#39;Joe&#39;</text>
</g>
<!-- N4&#45;&gt;N8 -->
<g id="edge2" class="edge"><title>N4&#45;&gt;N8</title>
<path fill="none" stroke="#2e3436" stroke-width="2" d="M240.628,-252.702C235.109,-247.355 230.021,-241.031 227,-234 223.988,-226.991 224.971,-219.212 227.546,-212.031"/>
<polygon fill="#2e3436" stroke="#2e3436" points="230.564,-205.102 230.664,-213.326 229.525,-208.74 228.028,-212.178 227.57,-211.978 227.111,-211.779 228.608,-208.34 224.475,-210.631 230.564,-205.102 230.564,-205.102"/>
<text text-anchor="middle" x="247" y="-226.8" font-family="FreeSans" font-size="8.00" fill="#2e3436">FOLLOWS</text>
</g>
<!-- N5 -->
<g id="node9" class="node"><title>N5</title>
<polygon fill="#ffffff" stroke="#ffffff" stroke-width="1.5" points="356,-85 412,-85 424,-97 424,-109 412,-121 356,-121 344,-109 344,-97 356,-85"/>
<path fill="#ffffff" stroke="#ffffff" stroke-width="1.5" d="M412,-85C418,-85 424,-91 424,-97"/>
<path fill="#ffffff" stroke="#ffffff" stroke-width="1.5" d="M424,-109C424,-115 418,-121 412,-121"/>
<path fill="#ffffff" stroke="#ffffff" stroke-width="1.5" d="M356,-121C350,-121 344,-115 344,-109"/>
<path fill="#ffffff" stroke="#ffffff" stroke-width="1.5" d="M344,-97C344,-91 350,-85 356,-85"/>
<polyline fill="none" stroke="#2e3436" stroke-width="1.5" points="356,-85 412,-85 "/>
<path fill="none" stroke="#2e3436" stroke-width="1.5" d="M412,-85C418,-85 424,-91 424,-97"/>
<polyline fill="none" stroke="#2e3436" stroke-width="1.5" points="424,-97 424,-109 "/>
<path fill="none" stroke="#2e3436" stroke-width="1.5" d="M424,-109C424,-115 418,-121 412,-121"/>
<polyline fill="none" stroke="#2e3436" stroke-width="1.5" points="412,-121 356,-121 "/>
<path fill="none" stroke="#2e3436" stroke-width="1.5" d="M356,-121C350,-121 344,-115 344,-109"/>
<polyline fill="none" stroke="#2e3436" stroke-width="1.5" points="344,-109 344,-97 "/>
<path fill="none" stroke="#2e3436" stroke-width="1.5" d="M344,-97C344,-91 350,-85 356,-85"/>
<text text-anchor="middle" x="384" y="-109.8" font-family="FreeSans" font-size="8.00" fill="#1c2021">Node[5]</text>
<polyline fill="none" stroke="#2e3436" stroke-width="1.5" points="344,-103 424,-103 "/>
<text text-anchor="start" x="352" y="-91.8" font-family="FreeSans" font-size="8.00" fill="#1c2021">name = &#39;bikes&#39;</text>
</g>
<!-- N4&#45;&gt;N5 -->
<g id="edge6" class="edge"><title>N4&#45;&gt;N5</title>
<path fill="none" stroke="#4e9a06" stroke-width="2" d="M296.667,-252.899C304.254,-247.472 311.937,-241.061 318,-234 345.566,-201.898 365.152,-156.284 375.504,-128.22"/>
<polygon fill="#4e9a06" stroke="#4e9a06" points="378.057,-121.139 378.688,-129.339 377.255,-124.836 375.983,-128.364 375.513,-128.194 375.043,-128.025 376.315,-124.497 372.338,-127.049 378.057,-121.139 378.057,-121.139"/>
<text text-anchor="middle" x="370" y="-184.8" font-family="FreeSans" font-size="8.00" fill="#4e9a06">LIKES</text>
</g>
<!-- N7 -->
<g id="node11" class="node"><title>N7</title>
<polygon fill="#ffffff" stroke="#ffffff" stroke-width="1.5" points="351.5,-1 404.5,-1 416.5,-13 416.5,-25 404.5,-37 351.5,-37 339.5,-25 339.5,-13 351.5,-1"/>
<path fill="#ffffff" stroke="#ffffff" stroke-width="1.5" d="M404.5,-1C410.5,-1 416.5,-7 416.5,-13"/>
<path fill="#ffffff" stroke="#ffffff" stroke-width="1.5" d="M416.5,-25C416.5,-31 410.5,-37 404.5,-37"/>
<path fill="#ffffff" stroke="#ffffff" stroke-width="1.5" d="M351.5,-37C345.5,-37 339.5,-31 339.5,-25"/>
<path fill="#ffffff" stroke="#ffffff" stroke-width="1.5" d="M339.5,-13C339.5,-7 345.5,-1 351.5,-1"/>
<polyline fill="none" stroke="#2e3436" stroke-width="1.5" points="351.5,-1 404.5,-1 "/>
<path fill="none" stroke="#2e3436" stroke-width="1.5" d="M404.5,-1C410.5,-1 416.5,-7 416.5,-13"/>
<polyline fill="none" stroke="#2e3436" stroke-width="1.5" points="416.5,-13 416.5,-25 "/>
<path fill="none" stroke="#2e3436" stroke-width="1.5" d="M416.5,-25C416.5,-31 410.5,-37 404.5,-37"/>
<polyline fill="none" stroke="#2e3436" stroke-width="1.5" points="404.5,-37 351.5,-37 "/>
<path fill="none" stroke="#2e3436" stroke-width="1.5" d="M351.5,-37C345.5,-37 339.5,-31 339.5,-25"/>
<polyline fill="none" stroke="#2e3436" stroke-width="1.5" points="339.5,-25 339.5,-13 "/>
<path fill="none" stroke="#2e3436" stroke-width="1.5" d="M339.5,-13C339.5,-7 345.5,-1 351.5,-1"/>
<text text-anchor="middle" x="378" y="-25.8" font-family="FreeSans" font-size="8.00" fill="#1c2021">Node[7]</text>
<polyline fill="none" stroke="#2e3436" stroke-width="1.5" points="339.5,-19 416.5,-19 "/>
<text text-anchor="start" x="347.5" y="-7.8" font-family="FreeSans" font-size="8.00" fill="#1c2021">name = &#39;cars&#39;</text>
</g>
<!-- N4&#45;&gt;N7 -->
<g id="edge8" class="edge"><title>N4&#45;&gt;N7</title>
<path fill="none" stroke="#4e9a06" stroke-width="2" d="M305.154,-253.105C317.401,-247.263 330.878,-240.581 343,-234 364.034,-222.581 372.16,-223.007 389,-206 419.569,-175.127 427.476,-163.89 439,-122 443.48,-105.716 445.215,-99.7039 439,-84 432.638,-67.9238 420.211,-53.4999 408.225,-42.3479"/>
<polygon fill="#4e9a06" stroke="#4e9a06" points="402.405,-37.1432 410.246,-39.6268 405.534,-39.2702 408.329,-41.7699 407.996,-42.1427 407.662,-42.5154 404.867,-40.0156 405.746,-44.6585 402.405,-37.1432 402.405,-37.1432"/>
<text text-anchor="middle" x="445" y="-142.8" font-family="FreeSans" font-size="8.00" fill="#4e9a06">LIKES</text>
</g>
<!-- N8&#45;&gt;N2 -->
<g id="edge26" class="edge"><title>N8&#45;&gt;N2</title>
<path fill="none" stroke="#4e9a06" stroke-width="2" d="M249.383,-168.946C251.501,-162.925 253.863,-156.177 256,-150 258.4,-143.061 260.975,-135.535 263.342,-128.582"/>
<polygon fill="#4e9a06" stroke="#4e9a06" points="265.811,-121.317 266.593,-129.504 265.078,-125.028 263.871,-128.579 263.397,-128.418 262.924,-128.257 264.131,-124.707 260.202,-127.332 265.811,-121.317 265.811,-121.317"/>
<text text-anchor="middle" x="271" y="-142.8" font-family="FreeSans" font-size="8.00" fill="#4e9a06">LIKES</text>
</g>
<!-- N8&#45;&gt;N4 -->
<g id="edge18" class="edge"><title>N8&#45;&gt;N4</title>
<path fill="none" stroke="#2e3436" stroke-width="2" d="M259.819,-205.294C263.962,-210.896 267.831,-217.347 270,-224 272.153,-230.603 272.441,-237.99 271.862,-244.916"/>
<polygon fill="#2e3436" stroke="#2e3436" points="270.845,-252.761 268.463,-244.889 270.832,-248.978 271.314,-245.259 271.81,-245.323 272.305,-245.387 271.823,-249.106 275.157,-245.757 270.845,-252.761 270.845,-252.761"/>
<text text-anchor="middle" x="291" y="-226.8" font-family="FreeSans" font-size="8.00" fill="#2e3436">FOLLOWS</text>
</g>
<!-- N8&#45;&gt;N5 -->
<g id="edge24" class="edge"><title>N8&#45;&gt;N5</title>
<path fill="none" stroke="#4e9a06" stroke-width="2" d="M273.248,-168.98C294.753,-156.168 323.774,-138.879 346.713,-125.213"/>
<polygon fill="#4e9a06" stroke="#4e9a06" points="353.315,-121.28 348.6,-128.018 350.35,-123.629 347.128,-125.548 346.872,-125.119 346.616,-124.689 349.838,-122.77 345.145,-122.219 353.315,-121.28 353.315,-121.28"/>
<text text-anchor="middle" x="329" y="-142.8" font-family="FreeSans" font-size="8.00" fill="#4e9a06">LIKES</text>
</g>
<!-- N6 -->
<g id="node13" class="node"><title>N6</title>
<polygon fill="#ffffff" stroke="#ffffff" stroke-width="1.5" points="124.5,-85 181.5,-85 193.5,-97 193.5,-109 181.5,-121 124.5,-121 112.5,-109 112.5,-97 124.5,-85"/>
<path fill="#ffffff" stroke="#ffffff" stroke-width="1.5" d="M181.5,-85C187.5,-85 193.5,-91 193.5,-97"/>
<path fill="#ffffff" stroke="#ffffff" stroke-width="1.5" d="M193.5,-109C193.5,-115 187.5,-121 181.5,-121"/>
<path fill="#ffffff" stroke="#ffffff" stroke-width="1.5" d="M124.5,-121C118.5,-121 112.5,-115 112.5,-109"/>
<path fill="#ffffff" stroke="#ffffff" stroke-width="1.5" d="M112.5,-97C112.5,-91 118.5,-85 124.5,-85"/>
<polyline fill="none" stroke="#2e3436" stroke-width="1.5" points="124.5,-85 181.5,-85 "/>
<path fill="none" stroke="#2e3436" stroke-width="1.5" d="M181.5,-85C187.5,-85 193.5,-91 193.5,-97"/>
<polyline fill="none" stroke="#2e3436" stroke-width="1.5" points="193.5,-97 193.5,-109 "/>
<path fill="none" stroke="#2e3436" stroke-width="1.5" d="M193.5,-109C193.5,-115 187.5,-121 181.5,-121"/>
<polyline fill="none" stroke="#2e3436" stroke-width="1.5" points="181.5,-121 124.5,-121 "/>
<path fill="none" stroke="#2e3436" stroke-width="1.5" d="M124.5,-121C118.5,-121 112.5,-115 112.5,-109"/>
<polyline fill="none" stroke="#2e3436" stroke-width="1.5" points="112.5,-109 112.5,-97 "/>
<path fill="none" stroke="#2e3436" stroke-width="1.5" d="M112.5,-97C112.5,-91 118.5,-85 124.5,-85"/>
<text text-anchor="middle" x="153" y="-109.8" font-family="FreeSans" font-size="8.00" fill="#1c2021">Node[6]</text>
<polyline fill="none" stroke="#2e3436" stroke-width="1.5" points="112.5,-103 193.5,-103 "/>
<text text-anchor="start" x="120.5" y="-91.8" font-family="FreeSans" font-size="8.00" fill="#1c2021">name = &#39;Maria&#39;</text>
</g>
<!-- N8&#45;&gt;N6 -->
<g id="edge22" class="edge"><title>N8&#45;&gt;N6</title>
<path fill="none" stroke="#a40000" stroke-width="2" d="M207.459,-172.103C202.979,-170.557 198.418,-169.138 194,-168 165.119,-160.557 80.6244,-172.459 61,-150 44.1912,-130.763 74.5641,-118.383 104.821,-111.185"/>
<polygon fill="#a40000" stroke="#a40000" points="112.482,-109.465 105.903,-114.401 108.933,-110.775 105.274,-111.596 105.164,-111.108 105.055,-110.62 108.714,-109.799 104.425,-107.815 112.482,-109.465 112.482,-109.465"/>
<text text-anchor="middle" x="75" y="-142.8" font-family="FreeSans" font-size="8.00" fill="#a40000">LOVES</text>
</g>
<!-- N8&#45;&gt;N6 -->
<g id="edge20" class="edge"><title>N8&#45;&gt;N6</title>
<path fill="none" stroke="#2e3436" stroke-width="2" d="M207.395,-172.337C202.926,-170.751 198.385,-169.259 194,-168 153.114,-156.263 127.102,-182.785 100,-150 92.7971,-141.287 97.6003,-132.771 106.716,-125.435"/>
<polygon fill="#2e3436" stroke="#2e3436" points="112.881,-121.028 108.742,-128.135 110.121,-123.615 107.07,-125.796 106.779,-125.39 106.489,-124.983 109.539,-122.802 104.816,-122.644 112.881,-121.028 112.881,-121.028"/>
<text text-anchor="middle" x="120" y="-142.8" font-family="FreeSans" font-size="8.00" fill="#2e3436">FOLLOWS</text>
</g>
<!-- N6&#45;&gt;N8 -->
<g id="edge12" class="edge"><title>N6&#45;&gt;N8</title>
<path fill="none" stroke="#a40000" stroke-width="2" d="M147.345,-121.365C145.614,-130.683 145.422,-141.744 151,-150 151.8,-151.184 176.515,-161.091 200.124,-170.356"/>
<polygon fill="#a40000" stroke="#a40000" points="207.388,-173.2 199.173,-173.608 203.713,-172.298 200.222,-170.931 200.404,-170.465 200.586,-170 204.078,-171.367 201.634,-167.322 207.388,-173.2 207.388,-173.2"/>
<text text-anchor="middle" x="165" y="-142.8" font-family="FreeSans" font-size="8.00" fill="#a40000">LOVES</text>
</g>
<!-- N6&#45;&gt;N8 -->
<g id="edge14" class="edge"><title>N6&#45;&gt;N8</title>
<path fill="none" stroke="#2e3436" stroke-width="2" d="M172.491,-121.191C185.809,-133.622 203.579,-150.207 217.948,-163.618"/>
<polygon fill="#2e3436" stroke="#2e3436" points="223.471,-168.773 215.686,-166.123 220.389,-166.58 217.647,-164.021 217.988,-163.656 218.33,-163.29 221.071,-165.849 220.291,-161.189 223.471,-168.773 223.471,-168.773"/>
<text text-anchor="middle" x="220" y="-142.8" font-family="FreeSans" font-size="8.00" fill="#2e3436">FOLLOWS</text>
</g>
<!-- N6&#45;&gt;N7 -->
<g id="edge16" class="edge"><title>N6&#45;&gt;N7</title>
<path fill="none" stroke="#4e9a06" stroke-width="2" d="M193.746,-87.7882C232.811,-73.2039 291.688,-51.2233 332.322,-36.053"/>
<polygon fill="#4e9a06" stroke="#4e9a06" points="339.436,-33.3972 333.59,-39.1823 336.098,-35.1772 332.585,-36.4889 332.41,-36.0204 332.235,-35.552 335.748,-34.2404 331.229,-32.8586 339.436,-33.3972 339.436,-33.3972"/>
<text text-anchor="middle" x="284" y="-58.8" font-family="FreeSans" font-size="8.00" fill="#4e9a06">LIKES</text>
</g>
</g>
</svg>
